<svg width="8" height="14" viewBox="0 0 8 14" fill="none" xmlns="http://www.w3.org/2000/svg">
<g id="elements">
<path id="Icon" d="M0.557718 12.3955C0.719092 12.2737 1.20084 11.9097 1.47855 11.693C2.03476 11.2589 2.77385 10.6658 3.51074 10.026C4.25136 9.38299 4.97265 8.70748 5.5029 8.10737C5.76877 7.80646 5.97081 7.54212 6.10231 7.32399C6.22598 7.11884 6.2517 6.99765 6.2517 6.99765C6.2517 6.99765 6.22598 6.88003 6.10231 6.67489C5.97081 6.45676 5.76878 6.19242 5.5029 5.89151C4.97266 5.2914 4.25136 4.61589 3.51073 3.97285C2.77383 3.33304 2.03473 2.73993 1.47851 2.30586C1.2008 2.08913 0.719736 1.72573 0.558361 1.60384C0.224838 1.35821 0.152902 0.888204 0.398534 0.554682C0.644167 0.221159 1.11366 0.14991 1.44719 0.395543L1.44973 0.397461C1.61899 0.525301 2.118 0.902201 2.40135 1.12333C2.97014 1.56721 3.73104 2.17764 4.49414 2.84019C5.25352 3.49951 6.03222 4.22518 6.62697 4.8983C6.92359 5.234 7.19031 5.5743 7.38694 5.90046C7.57115 6.20604 7.75244 6.59293 7.75243 6.99944C7.75243 7.40595 7.57115 7.79284 7.38693 8.09842C7.1903 8.42458 6.92359 8.76487 6.62697 9.10057C6.03222 9.77369 5.25353 10.4994 4.49416 11.1587C3.73107 11.8212 2.97017 12.4317 2.40139 12.8755C2.11784 13.0968 1.61881 13.4738 1.4499 13.6013L1.44772 13.603C1.11419 13.8486 0.64422 13.7777 0.398585 13.4442C0.152959 13.1107 0.224225 12.6412 0.557718 12.3955Z" fill="#B4953D"/>
</g>
</svg>
