<svg width="95" height="96" viewBox="0 0 95 96" fill="none" xmlns="http://www.w3.org/2000/svg">
<path d="M83.3192 70.0834C83.9375 70.79 84.865 71.1875 85.7925 71.1875V71.2318C86.5875 71.2318 87.3825 70.9226 88.0008 70.3926C91.7108 67.1242 93.3891 62.7518 92.6383 58.0702C92.0641 54.316 89.8118 51.3126 87.8243 48.6626C87.5681 48.3296 87.3267 47.9965 87.0915 47.672C86.9214 47.4372 86.7543 47.2068 86.5875 46.9843C84.335 43.716 84.1584 40.0943 84.1584 35.9868C84.1584 16.421 67.8167 0.520874 47.7651 0.520874C39.6826 0.520874 32.0859 3.03848 25.6817 7.80848C24.2242 8.91265 23.915 10.9884 25.0191 12.4459C26.1233 13.9034 28.1993 14.2124 29.6568 13.1083C34.8685 9.2216 41.1401 7.14587 47.7651 7.14587C64.1951 7.14587 77.5334 20.0868 77.5334 35.9868C77.5334 40.8452 77.7984 45.9684 81.1551 50.7826C81.5967 51.4009 82.0384 52.0191 82.5242 52.6375C84.2026 54.8458 85.7484 56.9659 86.1017 59.0859C86.455 61.5592 85.66 63.5909 83.6284 65.4017C82.2592 66.5942 82.1267 68.7142 83.3192 70.0834Z" fill="#B4953D"/>
<path fill-rule="evenodd" clip-rule="evenodd" d="M12.8274 73.8368C23.0299 77.9443 35.2197 80.0644 47.4539 80.0644L47.4097 80.0202C55.7403 80.0202 64.071 79.0599 71.9145 77.0988L89.3233 94.5075C89.9858 95.17 90.8251 95.4791 91.6642 95.4791C92.5034 95.4791 93.3427 95.17 94.0052 94.5075C95.286 93.2267 95.286 91.1065 94.0052 89.8256L21.2683 17.0887C21.188 16.999 21.1024 16.9133 21.0116 16.8321L5.67185 1.49228C4.39101 0.211449 2.27076 0.211449 0.989922 1.49228C-0.290911 2.77312 -0.290911 4.89337 0.989922 6.17421L14.6955 19.8798C12.2788 24.7429 10.9722 30.3646 10.9722 35.9862C10.9722 40.0937 10.7956 43.7153 8.54305 46.9394C8.14555 47.5136 7.70399 48.0878 7.26232 48.662L7.14889 48.8132C5.1883 51.4262 2.9671 54.3866 2.40382 58.0695C1.29966 64.8712 5.23069 70.7893 12.8274 73.8368ZM15.3007 67.6978C29.8369 73.5285 49.3843 74.9787 66.3881 71.5724L19.7026 24.8868C18.3237 28.3428 17.553 32.2212 17.553 35.9862C17.553 40.8445 17.2882 45.9677 13.9315 50.7377C13.4899 51.356 13.004 52.0185 12.5182 52.6368C10.8398 54.8452 9.24984 56.9653 8.94067 59.0853C8.14567 64.0319 12.6065 66.5937 15.3007 67.6978Z" fill="#B4953D"/>
<path d="M32.2168 90.3561C36.4126 93.6686 41.8452 95.4793 47.4985 95.4793C53.1077 95.4793 58.5403 93.6686 62.7803 90.3561C64.2378 89.252 64.4587 87.1759 63.3545 85.7184C62.2503 84.2609 60.1743 83.9959 58.7168 85.1442C52.5776 89.9142 42.4195 89.9142 36.2803 85.1442C34.867 83.9959 32.7467 84.2609 31.6426 85.7184C30.5384 87.1318 30.7593 89.252 32.2168 90.3561Z" fill="#B4953D"/>
</svg>
