<?xml version="1.0" standalone="no"?>
<!DOCTYPE svg PUBLIC "-//W3C//DTD SVG 20010904//EN" "http://www.w3.org/TR/2001/REC-SVG-20010904/DTD/svg10.dtd">
<svg xmlns="http://www.w3.org/2000/svg" version="1.0" width="515.000000pt" height="513.000000pt" viewBox="0 0 515.000000 513.000000" preserveAspectRatio="xMidYMid meet">
<metadata>
Created by potrace 1.16, written by Peter Selinger 2001-2019
<meta name="Producer" content="Online-Convert"/></metadata>
<g transform="translate(0.000000,513.000000) scale(0.100000,-0.100000)" fill="#000000" stroke="none">
<path d="M3775 5060 c-33 -5 -78 -15 -100 -23 -76 -28 -105 -41 -105 -48 0 -3 29 -9 66 -13 67 -7 200 -45 244 -71 37 -21 24 -18 -76 16 -122 42 -234 50 -289 20 -35 -18 -36 -20 -10 -13 84 21 266 -13 378 -69 l37 -19 0 -209 0 -209 -27 -11 c-16 -6 -39 -21 -53 -32 -17 -13 -4 -9 37 11 38 18 69 27 80 23 21 -7 147 -87 183 -116 46 -36 -12 -10 -84 38 -91 61 -114 64 -184 24 -61 -34 -160 -99 -204 -133 -14 -12 -39 -31 -55 -43 -16 -12 -41 -46 -56 -75 -26 -53 -26 -54 -16 -182 15 -196 7 -252 -32 -213 -8 7 -39 27 -69 44 -30 16 -72 40 -93 53 -21 12 -41 20 -44 16 -3 -3 -11 -1 -18 4 -6 5 -47 11 -90 12 -85 3 -82 5 -110 -67 -12 -31 -18 -36 -25 -25 -6 10 -7 -11 -3 -55 9 -114 9 -138 -4 -142 -14 -5 -73 55 -73 74 0 7 -5 13 -11 13 -7 0 -8 -7 -4 -17 4 -10 10 -30 13 -46 2 -15 8 -30 13 -33 5 -3 9 -16 9 -29 0 -13 5 -27 10 -30 13 -8 13 -45 0 -45 -6 0 -3 -14 6 -32 14 -27 15 -40 5 -81 -17 -76 -14 -157 9 -201 l19 -39 -24 23 c-28 26 -33 16 -10 -16 8 -12 11 -25 7 -29 -4 -4 3 -3 15 4 16 8 24 8 29 -1 4 -6 3 -8 -4 -4 -7 4 -10 -1 -9 -14 1 -11 5 -20 9 -20 11 0 98 -89 98 -101 0 -5 7 -9 15 -9 8 0 15 -4 15 -8 0 -4 18 -19 40 -32 22 -14 40 -28 40 -33 0 -4 12 -5 28 -2 15 3 21 2 15 -1 -19 -8 -16 -27 3 -20 14 6 48 -17 39 -26 -2 -2 5 -5 17 -5 25 -2 37 -14 21 -20 -7 -3 -13 -9 -13 -15 0 -7 4 -7 13 0 7 6 23 9 35 5 13 -3 22 -1 22 6 0 8 5 9 19 1 27 -14 41 -13 35 4 -3 9 9 17 41 26 25 7 62 26 82 41 20 16 42 29 50 29 168 0 287 7 291 18 2 6 15 12 28 12 16 0 23 -4 19 -11 -5 -7 7 -8 39 -4 31 5 46 4 46 -4 0 -14 45 -14 71 0 18 9 19 8 13 -16 l-6 -26 113 4 c113 4 115 4 174 43 84 54 96 61 132 79 104 53 237 252 204 304 -7 10 -1 31 16 65 l25 51 -31 -37 c-46 -55 -105 -73 -231 -73 -123 0 -121 1 -196 -129 -44 -74 -61 -97 -128 -170 -16 -17 -36 -42 -44 -55 -16 -23 -16 -23 -24 -2 -9 24 -19 25 -140 10 -59 -8 -92 -8 -100 -1 -7 5 -28 13 -46 17 -57 12 -16 29 120 51 34 6 37 10 44 48 4 22 8 73 9 111 2 81 13 128 28 118 5 -3 7 -1 4 4 -4 6 16 34 43 61 28 28 50 55 50 61 0 17 4 14 61 -39 60 -55 79 -62 79 -27 0 13 7 32 15 43 17 22 20 70 5 79 -5 3 -10 15 -10 26 0 10 -4 19 -10 19 -5 0 -10 5 -10 11 0 21 -92 99 -117 99 -29 0 -27 9 22 115 40 85 113 297 123 356 7 41 9 43 72 66 85 32 232 70 295 76 49 5 51 4 93 -41 58 -63 92 -113 136 -201 39 -77 47 -136 30 -228 -12 -69 6 -27 22 48 13 64 20 78 50 103 54 44 56 52 39 178 -26 202 -75 351 -144 437 -25 31 -55 54 -105 77 -57 26 -80 44 -114 88 -90 117 -242 230 -352 263 -30 9 -68 29 -85 44 -45 40 -64 47 -166 64 -99 16 -253 18 -354 5z m599 -134 c104 -37 173 -84 271 -182 78 -77 94 -99 111 -150 20 -63 26 -224 11 -296 -7 -34 -11 -38 -40 -38 -50 0 -148 -26 -267 -71 l-108 -41 -73 61 c-72 61 -109 81 -73 39 l19 -22 -26 20 c-15 10 -22 22 -17 25 11 7 -88 80 -174 129 l-58 32 0 208 0 208 48 20 c93 39 233 78 289 81 12 1 52 -10 87 -23z"/>
<path d="M1010 4999 c7 -11 9 -27 6 -35 -3 -8 -2 -13 3 -10 8 6 63 -106 75 -154 3 -14 3 -19 0 -12 -3 6 -10 12 -15 12 -6 0 -7 -4 -4 -10 3 -5 4 -10 1 -10 -6 0 -30 51 -63 130 -24 57 -36 80 -41 75 -2 -2 5 -26 18 -52 41 -88 42 -93 18 -89 -24 3 -36 25 -21 35 6 3 7 15 2 26 l-8 20 0 -20 c-1 -11 -5 -26 -10 -33 -7 -11 -9 -10 -14 3 -4 9 -3 13 3 10 6 -3 10 1 10 9 0 9 -6 13 -14 10 -13 -5 -31 24 -21 34 3 3 5 0 5 -7 0 -7 5 -9 10 -6 6 4 7 11 4 17 -4 7 -2 8 5 4 6 -4 9 -12 6 -17 -4 -5 -1 -9 4 -9 16 0 14 11 -9 56 -18 35 -19 36 -14 9 6 -29 6 -29 -10 -10 l-16 20 6 -20 c6 -20 5 -20 -10 -1 -9 11 -16 14 -16 7 0 -7 -4 -9 -10 -6 -5 3 -10 0 -10 -8 0 -8 7 -14 16 -13 9 0 19 -6 22 -14 5 -13 3 -13 -11 -1 -14 11 -17 11 -18 0 0 -8 -6 -1 -13 15 l-13 28 -6 -32 c-7 -31 3 -65 39 -132 8 -14 14 -34 14 -43 0 -9 4 -14 8 -11 5 3 9 -1 9 -9 0 -8 -4 -15 -9 -15 -4 0 -8 5 -8 11 0 5 -5 7 -10 4 -6 -3 -18 7 -28 24 -9 17 -20 31 -24 31 -5 0 -8 11 -8 24 0 14 -5 28 -10 31 -6 4 -7 11 -4 17 4 7 2 8 -4 4 -7 -4 -12 -3 -12 1 0 5 -16 26 -36 47 -30 32 -35 34 -29 15 13 -45 48 -111 71 -136 13 -14 24 -32 24 -39 0 -8 6 -14 13 -14 7 0 12 -12 12 -29 0 -20 -4 -28 -15 -26 -8 2 -23 4 -32 4 -9 1 -19 7 -21 14 -2 6 -3 -1 -1 -18 2 -16 1 -25 -4 -20 -12 17 -88 18 -105 1 -8 -8 -18 -12 -22 -8 -5 4 -5 -1 -2 -11 4 -11 3 -16 -3 -12 -6 3 -10 -2 -10 -12 0 -15 -2 -16 -10 -3 -8 12 -10 10 -10 -10 0 -20 -2 -22 -10 -10 -7 11 -10 11 -10 2 0 -7 -4 -11 -9 -7 -5 3 -12 1 -16 -5 -4 -6 -11 -8 -16 -5 -5 4 -9 1 -9 -5 0 -6 -5 -8 -10 -5 -6 4 -9 1 -8 -7 2 -7 -4 -12 -12 -10 -8 2 -12 0 -8 -4 4 -4 3 -13 -3 -20 -7 -8 -9 -28 -5 -49 6 -29 11 -34 31 -33 13 1 22 5 20 9 -6 9 50 60 58 52 4 -3 7 -1 7 5 0 16 60 31 86 21 12 -4 25 -5 28 -1 17 16 45 10 52 -11 7 -21 7 -21 14 -3 12 36 39 27 60 -19 11 -24 20 -50 19 -57 0 -7 -7 1 -14 17 -11 23 -14 26 -15 10 0 -15 -2 -17 -9 -7 -7 11 -9 10 -14 -3 -4 -9 -3 -13 3 -10 6 3 10 -1 10 -10 0 -9 -4 -14 -9 -11 -5 4 -7 -4 -4 -16 3 -13 -5 -5 -16 18 -21 39 -30 44 -79 44 -28 0 -42 -7 -42 -22 0 -7 4 -7 13 0 10 9 12 4 9 -25 -3 -19 -8 -30 -11 -24 -5 7 -12 2 -19 -14 -7 -14 -17 -23 -22 -20 -6 3 -10 1 -10 -5 0 -7 -6 -10 -13 -7 -8 3 -20 -3 -27 -13 -8 -11 -18 -17 -22 -14 -5 3 -20 -6 -34 -21 -22 -24 -23 -29 -11 -44 8 -9 12 -22 10 -28 -6 -18 12 -16 27 2 7 8 16 13 20 10 4 -2 15 4 25 15 10 11 24 20 31 20 7 0 15 6 17 13 4 9 6 9 6 -1 1 -8 6 -10 14 -5 14 9 60 13 51 4 -3 -3 -9 -6 -12 -6 -15 -1 -111 -51 -112 -58 0 -5 6 -5 13 -1 6 4 3 -2 -7 -14 -11 -12 -22 -20 -25 -17 -3 4 1 10 9 15 8 6 10 10 4 10 -6 0 -21 -11 -34 -25 -20 -22 -22 -29 -12 -45 9 -16 9 -18 -2 -14 -15 6 -31 -40 -21 -57 7 -10 -13 -76 -29 -97 -7 -9 -5 -16 5 -23 11 -7 10 -10 -8 -15 -13 -4 -23 -10 -23 -15 0 -4 21 1 46 12 67 30 147 36 181 14 l27 -18 -24 -9 c-17 -6 -20 -12 -13 -19 15 -15 -12 -46 -54 -64 -38 -16 -149 -124 -186 -180 -14 -22 -29 -61 -32 -88 -7 -46 -6 -48 35 -88 39 -38 41 -42 25 -59 -19 -21 -15 -23 65 -35 103 -16 255 -63 325 -101 22 -12 80 -42 129 -68 49 -26 95 -51 103 -57 10 -9 13 -8 13 4 0 8 -6 17 -14 20 -7 3 -24 20 -37 38 l-23 32 42 -6 c46 -8 138 -59 192 -107 19 -17 65 -52 102 -77 38 -24 70 -49 74 -54 3 -5 13 -9 22 -9 10 0 24 -9 32 -20 8 -11 19 -20 25 -20 5 -1 26 -14 45 -30 19 -17 38 -30 43 -30 9 0 61 -35 94 -64 12 -10 33 -18 47 -18 24 0 25 -1 8 -27 -32 -51 -41 -55 -52 -27 -5 14 -14 26 -19 26 -6 0 -22 11 -37 25 -15 14 -41 36 -57 48 -16 12 -38 29 -47 39 -10 9 -27 19 -38 22 -11 4 -36 22 -55 41 -20 19 -39 35 -42 35 -4 0 -20 9 -36 21 -16 11 -36 18 -44 15 -10 -3 -12 0 -8 11 4 10 2 14 -7 11 -8 -2 -22 4 -33 15 -15 15 -21 16 -27 7 -6 -10 -10 -9 -16 2 -10 16 -53 42 -60 36 -5 -6 98 -82 261 -193 170 -116 239 -165 300 -214 28 -22 88 -69 135 -106 47 -36 114 -89 150 -118 36 -28 72 -57 80 -64 56 -45 167 -137 175 -146 23 -24 -25 11 -127 92 -59 47 -145 114 -190 148 -46 34 -148 111 -227 170 -78 59 -154 115 -167 123 -13 8 -68 48 -124 88 -55 39 -105 72 -112 72 -6 0 -9 3 -5 6 3 3 -15 17 -41 31 -47 25 -222 133 -289 179 -58 39 -211 111 -297 138 -43 14 -118 31 -166 38 -76 10 -95 9 -153 -7 -79 -21 -141 -69 -168 -129 -20 -44 -25 -138 -10 -178 15 -42 22 -78 14 -78 -10 0 -42 72 -50 111 -6 33 -11 35 -28 12 -7 -9 -14 -12 -18 -6 -4 5 5 16 18 23 14 7 25 17 25 22 0 5 -9 4 -19 -2 -11 -5 -21 -10 -24 -10 -4 0 -7 23 -7 60 0 24 -1 24 -12 5 -16 -30 -17 -30 -31 -10 -12 15 -14 16 -14 1 0 -9 5 -16 10 -16 5 0 3 -8 -4 -17 -12 -14 -12 -16 1 -9 8 4 5 -1 -8 -10 -12 -9 -22 -23 -22 -30 0 -18 5 -18 35 2 19 13 23 20 15 34 -7 13 -6 19 4 23 9 4 13 -5 14 -27 1 -25 -4 -34 -27 -44 -16 -7 -35 -10 -44 -6 -11 4 -16 -1 -19 -18 -2 -13 -13 -27 -25 -33 -19 -8 -21 -17 -21 -67 1 -31 5 -55 10 -52 4 3 8 0 8 -5 0 -6 -4 -11 -8 -11 -13 0 -13 -61 0 -78 10 -13 11 -14 0 -8 -10 6 -12 -46 -12 -258 1 -167 5 -266 11 -266 6 0 6 -8 -1 -20 -6 -11 -7 -20 -1 -20 5 0 12 7 15 16 3 8 10 12 16 9 17 -10 11 17 -7 37 -13 15 -14 19 -3 16 8 -2 14 4 15 12 0 8 8 14 17 12 9 -1 19 6 23 18 8 24 21 26 29 4 5 -13 9 -14 21 -4 12 10 15 9 15 -4 0 -23 13 -20 40 9 24 25 22 28 -15 26 -19 -1 -19 -1 -2 10 15 8 23 7 37 -6 18 -17 19 -17 15 4 -2 11 0 21 6 21 5 0 9 -5 9 -12 0 -6 3 -8 7 -4 4 4 -3 15 -16 25 l-23 18 27 21 c15 12 31 20 35 17 4 -3 13 2 20 10 7 8 9 15 4 15 -5 1 2 8 16 16 14 8 17 13 7 10 -10 -3 -26 -6 -34 -6 -13 0 -13 -3 -3 -15 10 -12 9 -15 -8 -15 -11 0 -25 -6 -31 -14 -7 -8 -21 -12 -31 -9 -21 6 -50 -12 -50 -31 0 -8 2 -8 8 0 4 6 18 15 32 19 23 7 23 7 7 -9 -19 -19 -23 -31 -7 -21 6 3 10 4 10 1 0 -3 -9 -10 -20 -16 -15 -8 -24 -8 -35 2 -33 30 -41 34 -53 30 -6 -2 -12 1 -12 7 0 6 3 10 8 9 11 -4 51 39 44 48 -4 4 -2 4 4 1 6 -4 22 5 34 18 19 20 20 25 7 25 -9 0 -19 -5 -22 -10 -5 -8 -11 -8 -19 -1 -9 7 -17 7 -26 -2 -8 -6 -6 -2 4 11 20 23 27 27 25 15 -3 -19 3 -21 28 -8 17 9 31 11 38 5 8 -7 15 -2 23 15 10 21 9 25 -4 25 -8 0 -13 -4 -10 -9 3 -5 -6 -11 -21 -14 l-28 -5 31 27 c32 29 82 35 76 11 -2 -10 1 -11 10 -3 7 6 26 13 41 17 22 5 27 4 21 -6 -4 -7 -3 -9 1 -5 11 10 16 39 5 32 -4 -3 -10 5 -13 16 -4 14 -10 18 -18 13 -10 -6 -10 -9 -1 -12 13 -4 17 -22 5 -22 -5 0 -14 4 -22 9 -12 8 -13 12 -1 26 10 12 11 18 1 28 -10 9 -12 9 -9 -2 2 -7 -3 -16 -11 -19 -8 -3 -11 0 -7 7 4 6 4 11 1 11 -3 0 -11 -13 -16 -29 -6 -16 -18 -32 -27 -36 -14 -5 -14 -4 1 13 15 17 16 21 3 31 -9 7 -17 8 -20 2 -3 -5 -1 -11 5 -13 8 -3 6 -9 -4 -20 -9 -8 -14 -18 -11 -21 3 -3 -4 -11 -16 -17 -22 -12 -22 -12 -6 11 9 13 16 31 16 40 0 25 29 47 40 30 5 -9 10 -10 14 -2 4 6 4 11 -1 11 -4 0 0 5 10 11 18 11 57 4 57 -10 0 -5 27 -21 61 -36 57 -25 62 -26 78 -10 15 15 14 19 -18 46 -19 16 -32 31 -28 35 3 4 20 -5 37 -19 l31 -26 40 29 41 29 46 -18 47 -17 -3 -47 c-3 -54 18 -88 42 -68 11 9 15 6 20 -14 4 -17 27 -39 69 -65 34 -21 77 -48 95 -59 19 -12 38 -19 42 -16 5 3 28 35 51 70 39 61 50 70 73 66 5 -1 22 3 38 10 21 8 32 8 41 0 8 -6 17 -8 20 -4 4 3 7 1 7 -5 0 -6 6 -10 13 -8 6 1 9 1 5 -1 -5 -3 -8 -15 -8 -27 0 -24 30 -37 115 -51 53 -8 81 -25 43 -25 -19 0 -28 -5 -28 -16 0 -19 23 -40 115 -100 94 -63 175 -132 175 -150 0 -9 4 -13 9 -10 4 3 27 -15 50 -39 23 -25 46 -45 51 -45 5 0 10 28 12 62 3 55 5 63 22 60 10 -2 22 2 26 9 6 8 13 2 24 -19 18 -35 20 -46 7 -38 -5 4 -7 -3 -4 -13 4 -15 -1 -20 -19 -23 -42 -6 -34 -89 22 -236 21 -52 26 -80 21 -100 -10 -33 6 -72 29 -72 10 0 20 -8 24 -17 3 -10 9 -24 12 -32 4 -9 -6 -5 -25 8 -25 18 -35 20 -46 11 -12 -10 -9 -17 22 -46 31 -30 34 -36 22 -51 -8 -9 -9 -14 -3 -10 6 3 17 -3 24 -14 20 -27 50 -25 51 4 1 16 2 18 6 5 2 -10 10 -18 16 -18 7 0 31 -30 54 -67 38 -61 41 -70 29 -88 -12 -18 -12 -24 0 -40 8 -10 17 -16 21 -12 3 4 14 -10 23 -31 10 -21 31 -54 49 -74 17 -20 31 -41 31 -47 0 -8 11 -10 33 -7 29 5 38 -1 95 -57 41 -40 62 -69 62 -85 0 -13 -4 -20 -10 -17 -5 3 -10 1 -10 -4 0 -6 5 -11 10 -11 6 0 10 -7 10 -15 0 -8 9 -15 19 -15 26 0 51 -10 51 -20 0 -5 -13 -5 -29 0 -16 4 -32 6 -35 2 -10 -9 -7 -34 4 -27 15 9 52 -14 44 -28 -4 -7 -4 -9 1 -5 4 4 16 3 27 -3 14 -7 17 -16 12 -32 -6 -22 -6 -22 10 -2 8 11 16 15 16 9 0 -7 12 -15 27 -19 19 -4 23 -9 14 -14 -9 -6 -10 -11 -3 -15 6 -4 8 -14 5 -24 -6 -16 -5 -16 14 1 11 9 23 14 28 10 4 -5 3 2 -4 14 -6 12 -16 25 -21 28 -19 12 -10 20 25 21 37 1 42 -5 23 -24 -7 -7 -9 -12 -6 -12 4 0 14 7 22 16 15 14 16 14 13 -5 -2 -11 -11 -29 -22 -41 -25 -27 -6 -25 34 4 41 31 78 24 40 -7 l-24 -20 25 7 25 7 -28 -21 c-15 -12 -25 -25 -22 -30 3 -4 -7 -11 -22 -15 -21 -5 -24 -8 -12 -16 7 -5 10 -9 4 -10 -5 0 -23 -3 -40 -5 -16 -3 -43 -6 -60 -7 -37 -3 -95 -26 -95 -38 0 -5 -7 -9 -15 -9 -20 0 -19 6 5 30 12 12 18 25 15 29 -2 5 2 12 11 15 8 3 14 14 12 23 -2 10 2 17 10 16 13 -3 16 9 5 21 -5 4 -8 12 -8 17 0 5 -3 9 -7 9 -38 0 -41 -2 -18 -11 24 -10 24 -11 6 -24 -20 -15 -41 -11 -31 6 4 5 2 9 -3 9 -15 0 -24 -32 -13 -43 13 -13 2 -37 -15 -30 -8 3 -14 0 -14 -6 0 -6 -10 -11 -22 -11 -17 0 -19 3 -10 12 17 17 15 38 -3 38 -8 0 -15 4 -15 10 0 6 -10 5 -25 -2 -26 -12 -31 -23 -16 -33 6 -3 14 3 20 12 7 13 13 15 21 7 8 -8 3 -14 -19 -23 -16 -7 -32 -19 -35 -26 -3 -8 -15 -19 -28 -25 -23 -11 -23 -11 1 8 16 13 20 21 12 26 -6 4 -11 13 -11 19 0 8 3 8 9 -2 5 -8 11 -9 15 -3 4 6 -1 15 -11 20 -13 8 -21 6 -31 -6 -7 -10 -10 -11 -6 -3 5 11 3 13 -10 8 -10 -4 -20 -7 -22 -7 -3 0 -2 -5 2 -12 4 -7 3 -8 -5 -4 -6 4 -18 2 -26 -4 -9 -7 -26 -9 -41 -6 -17 5 -23 3 -19 -4 3 -5 2 -10 -4 -10 -17 0 -22 18 -6 24 8 3 15 12 15 21 0 8 3 15 8 15 4 0 13 9 20 20 10 16 10 20 -1 20 -7 0 -23 -17 -35 -38 -20 -34 -22 -35 -22 -12 l-1 25 -14 -26 c-13 -25 -41 -44 -57 -41 -4 1 -15 -9 -23 -22 -10 -15 -22 -22 -34 -19 -27 7 -59 -13 -82 -50 -18 -28 -20 -28 -14 -7 4 14 12 30 17 37 6 7 4 13 -4 16 -7 3 1 6 17 7 l30 2 -30 7 -30 6 33 14 c24 10 32 20 32 38 0 21 -3 23 -22 17 -30 -8 -36 -16 -20 -21 17 -7 15 -20 -5 -26 -10 -2 -26 -8 -35 -12 -13 -5 -18 -2 -18 9 0 20 -7 20 -28 0 -15 -15 -16 -15 -22 1 -5 14 -8 13 -18 -9 -6 -14 -18 -26 -27 -26 -8 0 -15 -6 -15 -14 0 -15 -27 -30 -49 -27 -7 1 -10 -2 -7 -8 8 -13 -44 -53 -61 -47 -7 3 -13 0 -13 -6 0 -6 -3 -8 -7 -5 -8 8 17 57 29 57 5 0 4 -9 -2 -20 -7 -14 -7 -20 0 -20 5 0 10 5 10 10 0 6 7 10 15 10 8 0 15 5 15 11 0 6 9 24 21 41 12 16 19 32 16 35 -9 9 -67 -31 -68 -47 0 -10 -3 -9 -9 5 -6 15 -3 25 12 38 11 9 17 17 13 17 -4 0 -2 6 4 13 6 8 9 17 6 20 -3 4 -2 5 2 2 11 -8 33 16 33 36 0 11 5 19 10 19 6 0 10 9 10 20 0 13 -5 18 -15 14 -8 -4 -13 -10 -10 -15 3 -4 -3 -6 -13 -4 -22 4 -88 -32 -78 -43 4 -3 11 0 16 8 11 19 22 8 14 -14 -4 -10 -16 -15 -35 -14 -17 1 -25 6 -20 13 4 5 6 20 6 31 -2 16 2 20 16 17 11 -3 19 0 19 6 0 6 -6 11 -12 11 -7 0 -4 6 7 12 18 11 31 14 107 22 15 1 33 -1 40 -5 10 -7 8 -9 -4 -9 -10 0 -18 -4 -18 -9 0 -5 9 -7 20 -4 23 6 24 8 10 33 -6 11 -17 17 -25 14 -9 -4 -15 0 -15 10 0 9 6 13 13 10 8 -3 20 3 28 13 13 16 12 17 -3 4 -15 -11 -18 -11 -18 1 0 9 -8 14 -22 12 -13 -1 -26 -3 -30 -3 -5 -1 -8 -6 -8 -12 0 -8 4 -8 14 0 19 16 29 -2 13 -23 -11 -15 -60 -27 -110 -27 -9 0 -16 -3 -13 -7 2 -4 -7 -8 -20 -8 -13 -1 -21 2 -18 7 3 5 11 9 19 9 8 0 17 5 21 12 5 8 2 9 -9 5 -10 -3 -17 -2 -17 3 0 6 -5 10 -11 10 -5 0 -7 -5 -3 -12 4 -7 3 -8 -5 -4 -6 4 -18 0 -27 -8 -8 -9 -22 -16 -30 -16 -8 0 -14 -6 -14 -12 0 -9 -4 -8 -10 2 -8 12 -11 11 -17 -9 -6 -23 -7 -23 -13 -5 -4 10 -3 22 2 25 4 3 11 16 13 30 3 13 10 29 17 34 7 6 19 18 27 28 23 30 -6 19 -40 -15 -23 -23 -30 -27 -25 -13 5 11 9 27 10 35 0 8 7 19 14 23 6 4 12 14 12 21 0 8 10 21 23 30 l22 17 -25 -7 c-14 -4 -31 -7 -37 -7 -8 0 -9 -4 -4 -11 14 -16 -12 -46 -40 -47 -22 -1 -22 -2 3 -8 l28 -6 -30 -17 -29 -16 5 36 c4 35 20 56 36 46 4 -3 8 5 8 18 -1 20 -2 21 -11 6 -5 -10 -17 -18 -26 -18 -13 0 -13 3 -3 15 14 17 0 21 -16 5 -14 -14 -66 8 -57 23 4 6 0 8 -10 4 -12 -4 -17 -1 -17 9 0 11 -5 14 -17 10 -15 -6 -15 -4 2 14 22 25 16 34 -16 21 -13 -5 -18 -10 -11 -10 7 -1 10 -6 7 -11 -4 -6 -10 -8 -15 -5 -5 3 -11 1 -15 -5 -3 -5 -12 -10 -18 -10 -7 0 -6 4 3 10 16 10 25 60 10 60 -4 0 -10 -3 -13 -7 -2 -5 -2 -3 -1 4 5 21 -13 23 -31 3 -19 -21 -56 -23 -48 -3 9 23 -40 10 -64 -17 -12 -14 -23 -20 -23 -14 0 6 7 17 15 24 8 7 15 18 15 26 0 11 30 27 55 29 6 0 10 8 10 17 0 9 11 28 24 42 22 23 12 31 -17 13 -7 -5 -12 -3 -12 4 0 8 -5 7 -17 -2 -14 -12 -16 -12 -11 1 2 8 17 16 31 18 28 3 36 17 15 25 -7 3 1 3 18 0 22 -3 33 -1 37 10 4 11 0 15 -11 15 -9 0 -30 2 -47 6 -23 6 -26 5 -15 -3 9 -7 10 -11 3 -11 -19 0 -26 20 -9 26 8 3 12 13 9 22 -4 13 -3 14 5 4 5 -8 12 -13 16 -13 18 3 20 0 6 -9 -12 -8 -12 -10 -1 -10 7 0 21 8 30 18 19 23 78 38 60 16 -8 -9 -8 -14 -1 -14 11 0 28 38 24 53 -1 5 3 5 9 1 8 -4 9 0 4 15 -4 13 -2 21 5 21 6 0 8 -4 5 -10 -3 -5 -2 -10 4 -10 16 0 22 18 9 24 -7 3 -1 3 14 0 14 -3 37 0 50 6 18 10 21 10 11 0 -9 -10 -8 -18 3 -35 13 -20 13 -23 -1 -28 -8 -4 -15 -2 -15 3 0 6 -8 10 -17 10 -14 0 -15 -2 -5 -9 18 -11 -11 -23 -35 -14 -15 6 -15 7 3 15 17 7 17 8 1 5 -10 -1 -18 -6 -18 -12 0 -5 -8 -19 -17 -30 -9 -11 -10 -14 -2 -8 8 7 18 13 23 13 5 0 -11 -18 -35 -40 -48 -44 -38 -56 12 -14 36 31 52 26 19 -7 l-22 -22 29 7 c16 4 34 12 39 18 7 8 4 9 -10 4 -20 -6 -20 -6 -1 9 22 17 40 20 31 5 -3 -5 -2 -10 3 -10 5 0 9 -7 9 -16 0 -10 -7 -14 -18 -11 -10 3 -26 -2 -36 -10 -17 -14 -17 -14 0 -9 17 5 17 3 -3 -29 l-22 -36 24 6 c13 3 35 2 48 -4 15 -6 19 -10 10 -12 -60 -7 -95 -19 -107 -38 -10 -16 -9 -20 9 -24 12 -4 29 -2 37 4 13 8 12 9 -5 4 -14 -4 -21 -1 -21 9 0 9 4 13 9 10 4 -3 8 0 8 6 0 7 8 9 20 5 21 -7 60 10 73 31 4 8 14 14 21 14 8 0 17 7 20 16 3 8 11 12 18 8 8 -5 3 -15 -15 -30 -32 -27 -33 -34 -9 -34 15 -1 15 -2 -2 -15 -11 -8 -22 -11 -25 -7 -9 14 -66 -6 -94 -32 -27 -25 -38 -54 -15 -40 7 4 8 3 4 -4 -5 -8 1 -12 16 -12 19 0 20 2 8 11 -12 9 -12 10 3 5 25 -8 43 4 26 16 -11 7 -11 8 1 7 29 -4 69 12 64 26 -3 8 4 16 16 20 15 5 20 13 17 26 -3 10 -1 17 4 13 5 -3 9 2 9 10 0 9 5 16 11 16 5 0 7 -5 3 -12 -4 -7 -3 -8 4 -4 6 4 9 12 6 20 -3 8 3 12 17 12 16 -1 23 6 25 24 2 14 1 21 -3 15 -5 -5 -19 -16 -32 -24 -21 -12 -26 -11 -36 3 -8 10 -20 14 -31 10 -18 -5 -18 -5 -2 8 9 8 18 20 20 28 2 7 16 26 32 42 17 17 23 28 15 28 -16 0 -49 -20 -34 -20 5 0 -7 -11 -28 -25 -39 -27 -50 -43 -17 -25 14 7 20 7 20 0 0 -9 -21 -14 -36 -7 -4 1 -10 -8 -15 -20 -5 -13 -16 -23 -26 -23 -16 0 -16 1 1 13 9 7 18 21 20 32 2 11 16 26 31 35 16 9 30 21 33 28 5 15 -14 16 -23 2 -4 -6 -11 -7 -17 -4 -6 4 -9 3 -6 -2 3 -5 0 -14 -7 -21 -18 -16 -28 9 -12 28 10 10 9 11 -3 3 -28 -20 -50 -24 -50 -10 0 8 14 19 30 25 16 5 30 7 30 3 0 -3 7 4 16 17 11 15 20 19 26 13 14 -14 38 -4 39 17 0 10 2 11 6 4 7 -18 20 -16 20 2 0 8 -3 13 -5 10 -3 -3 -12 1 -20 8 -9 6 -13 7 -10 2 4 -6 0 -18 -7 -28 -11 -15 -13 -15 -18 -3 -4 9 -2 18 2 21 5 3 14 19 20 35 5 17 6 28 1 25 -5 -3 -8 3 -7 14 0 11 5 17 11 14 5 -3 6 -1 2 5 -4 7 -18 10 -34 6 -32 -8 -28 -1 13 21 l30 17 -28 -7 c-21 -4 -27 -3 -21 6 5 9 2 10 -10 6 -10 -4 -20 -7 -22 -7 -2 0 -4 -5 -4 -11 0 -5 5 -7 12 -3 7 4 8 3 4 -5 -9 -14 -26 -5 -26 14 0 21 -17 27 -24 9 -4 -10 -2 -13 6 -8 6 4 3 -5 -8 -19 -18 -26 -42 -39 -28 -15 4 6 3 8 -4 4 -6 -3 -13 -2 -16 3 -3 5 4 11 16 14 12 4 19 9 16 12 -8 8 -71 -24 -81 -42 -5 -7 -12 -11 -18 -8 -12 8 -11 -6 1 -25 7 -10 12 -12 18 -4 4 6 18 15 32 19 34 11 100 13 94 3 -7 -11 10 -10 22 2 6 6 15 6 24 0 10 -7 11 -10 3 -11 -28 -3 -32 -4 -40 -13 -5 -5 6 -6 25 -3 19 4 32 2 32 -4 0 -6 -6 -7 -12 -3 -7 4 -10 3 -5 -1 4 -5 1 -15 -7 -24 -14 -16 -16 -20 -16 -43 0 -6 -6 -3 -14 7 -12 17 -12 21 7 34 20 14 20 15 1 22 -10 3 -24 3 -30 -2 -7 -6 -16 -3 -24 6 -11 13 -10 14 3 10 8 -4 18 -1 22 5 4 7 -2 9 -19 6 -14 -3 -29 0 -32 6 -9 14 -34 -19 -28 -36 3 -7 -7 -18 -21 -24 -14 -7 -25 -8 -25 -2 0 5 -8 6 -17 3 -16 -6 -16 -5 -4 10 12 16 11 20 -9 39 -20 19 -21 22 -7 33 9 7 14 15 10 18 -3 4 2 7 13 8 15 1 13 3 -6 9 -23 7 -23 8 -3 9 12 1 24 7 26 14 4 8 8 8 14 2 12 -14 38 -12 60 5 19 16 41 19 58 8 6 -4 17 -2 25 4 12 8 12 9 -2 4 -22 -7 -22 -2 -1 31 17 26 17 27 0 20 -15 -6 -21 2 -19 24 1 3 -5 6 -13 6 -8 0 -12 -4 -9 -8 2 -4 -6 -17 -18 -28 l-22 -21 30 0 c21 0 25 -3 14 -9 -8 -6 -17 -8 -21 -5 -4 2 -10 0 -14 -6 -3 -5 -12 -10 -19 -10 -16 0 -14 53 3 74 17 20 5 21 -15 2 -8 -8 -11 -22 -7 -32 4 -11 3 -15 -4 -11 -6 4 -13 0 -16 -8 -4 -10 -1 -12 11 -8 11 4 13 3 7 -3 -5 -6 -28 -16 -50 -23 -22 -8 -45 -21 -51 -30 -9 -12 -15 -13 -26 -3 -12 9 -19 9 -34 -3 -25 -19 -32 -19 -36 2 -3 15 -4 15 -20 0 -10 -11 -19 -13 -23 -7 -3 5 -1 10 4 10 6 0 11 8 11 18 0 9 4 13 8 7 11 -15 109 -15 109 0 0 7 -6 11 -14 8 -8 -3 -11 0 -8 9 4 9 0 15 -9 15 -8 0 -13 -4 -10 -9 3 -4 2 -8 -3 -9 -4 0 -20 -2 -35 -4 -33 -4 -39 20 -7 28 12 3 18 10 15 15 -3 5 7 15 22 21 22 10 25 10 15 0 -7 -7 -13 -17 -13 -22 0 -5 7 -1 16 8 11 11 20 13 28 6 9 -8 15 1 23 30 10 40 10 40 -9 20 -10 -12 -27 -21 -38 -21 -10 0 -22 -4 -25 -10 -3 -5 -10 -10 -15 -10 -12 0 0 32 14 42 7 5 7 8 -1 8 -7 0 -13 5 -13 10 0 18 22 10 27 -10 7 -27 20 -25 20 3 -1 28 23 77 37 77 6 0 4 5 -4 10 -13 8 -12 10 3 10 13 0 16 4 9 18 -10 20 -10 32 1 50 5 7 4 12 -2 12 -6 0 -11 -5 -11 -11 0 -5 -4 -8 -9 -4 -5 3 -12 1 -16 -5 -3 -5 2 -10 12 -11 13 -1 11 -3 -7 -9 -14 -4 -20 -8 -13 -9 6 -1 10 -10 8 -21 -2 -11 1 -20 7 -20 19 0 -1 -14 -25 -17 -43 -6 -52 -9 -66 -18 -9 -5 -12 -4 -7 3 3 6 1 14 -5 17 -6 4 -13 -2 -16 -14 -3 -12 -9 -21 -14 -21 -5 0 -9 -6 -9 -14 0 -15 -28 -42 -36 -34 -3 3 1 12 9 19 16 17 18 48 3 44 -16 -3 -86 -35 -86 -38 0 -10 46 0 53 11 4 6 15 12 24 12 15 0 15 -2 0 -18 -10 -10 -17 -24 -17 -31 0 -8 -6 -6 -17 5 -11 11 -18 13 -21 5 -2 -6 -8 -9 -12 -6 -5 3 -12 0 -16 -6 -5 -8 1 -10 20 -7 14 3 29 2 31 -2 2 -4 16 -5 30 -2 15 2 25 0 25 -7 0 -7 -4 -10 -9 -7 -5 4 -21 2 -35 -3 -18 -7 -24 -16 -21 -30 2 -11 -1 -23 -6 -26 -5 -4 -7 -11 -4 -16 4 -5 0 -12 -9 -15 -8 -3 -17 -12 -20 -19 -3 -8 0 -12 7 -9 7 2 21 -2 32 -11 19 -15 19 -15 -6 -9 -19 4 -28 1 -32 -10 -4 -9 -11 -16 -17 -16 -6 0 -8 5 -5 11 4 6 -1 17 -11 24 -11 9 -14 14 -7 15 7 0 12 5 10 12 -1 7 4 12 12 13 13 0 27 35 14 35 -11 0 -62 -49 -55 -53 4 -2 0 -2 -8 0 -8 2 -4 -5 8 -15 22 -17 23 -20 8 -35 -15 -14 -14 -16 6 -20 20 -4 19 -4 -4 -6 -16 0 -28 3 -28 8 0 15 -29 6 -43 -14 -8 -10 -19 -15 -25 -11 -8 5 -12 -1 -11 -16 0 -13 3 -17 6 -10 2 6 11 12 19 12 8 0 14 5 14 11 0 5 4 7 10 4 6 -3 7 1 4 10 -5 11 -2 14 10 9 9 -3 16 -13 16 -20 0 -16 -40 -35 -55 -26 -5 3 -5 -1 2 -9 10 -12 5 -21 -27 -48 -22 -18 -37 -37 -34 -42 3 -5 1 -9 -5 -9 -6 0 -8 -6 -5 -14 7 -19 -36 -63 -46 -47 -5 9 -14 9 -36 1 -22 -9 -26 -9 -17 1 6 6 9 18 6 25 -3 8 10 22 33 36 37 22 33 39 -5 18 -33 -17 -16 13 18 33 36 21 52 22 25 2 -12 -9 -14 -14 -6 -15 7 0 20 7 28 15 9 8 11 15 5 15 -6 0 -11 7 -11 15 0 8 9 15 20 15 11 0 20 5 20 10 0 15 -36 12 -49 -3 -6 -8 -8 -17 -4 -21 4 -4 -1 -4 -11 0 -11 4 -22 1 -28 -7 -6 -10 -7 -7 -3 10 4 13 3 21 -2 18 -5 -3 -9 2 -9 11 -1 26 -8 46 -19 54 -5 4 -2 10 8 14 9 3 17 10 17 14 0 10 -20 8 -37 -3 -9 -6 -11 -3 -7 7 6 16 17 20 42 17 6 -1 12 2 13 6 0 4 2 16 4 26 2 9 -1 15 -6 11 -5 -3 -6 -11 -3 -17 4 -7 4 -9 0 -5 -4 3 -23 0 -41 -8 -45 -19 -51 -18 -31 5 10 10 25 17 35 14 11 -3 21 2 24 11 4 9 2 16 -3 16 -6 0 -10 7 -10 15 0 17 -35 21 -45 5 -4 -6 -15 -8 -25 -5 -13 4 -22 -1 -30 -15 -6 -11 -15 -20 -20 -20 -11 0 9 40 24 52 6 4 18 3 27 -2 19 -11 48 13 30 24 -5 4 -12 2 -16 -4 -3 -5 -11 -10 -16 -10 -6 0 2 15 16 34 24 31 65 46 65 24 0 -4 5 -8 12 -8 6 0 9 3 5 6 -3 3 -2 17 3 30 7 17 5 28 -7 39 -8 9 -18 13 -21 10 -3 -3 3 -11 13 -19 17 -12 16 -13 -6 -11 -26 2 -64 -13 -55 -22 9 -10 -56 -84 -69 -79 -7 2 -16 2 -20 -2 -12 -13 -65 -8 -65 6 0 8 -5 10 -12 6 -7 -4 -10 -4 -6 1 10 11 -11 47 -23 40 -5 -4 -8 -1 -7 7 2 7 -7 14 -19 16 -16 2 -23 -2 -23 -12 0 -9 7 -16 15 -16 8 0 15 -4 15 -10 0 -15 -16 -12 -30 5 -7 8 -16 12 -22 9 -5 -3 -4 -12 4 -22 11 -13 10 -15 -9 -10 -12 3 -24 1 -27 -6 -2 -6 -5 -4 -5 5 -1 24 -27 44 -34 27 -4 -9 -6 -9 -6 -1 -1 16 16 26 24 13 11 -17 35 -11 61 15 18 18 30 23 41 16 25 -13 51 -2 59 27 4 15 6 31 5 35 -1 5 3 6 9 2 5 -3 10 -2 10 4 0 5 3 17 7 27 4 12 3 15 -5 10 -7 -4 -12 -2 -12 3 0 6 8 11 18 11 9 1 28 8 42 16 l25 15 -30 -5 c-17 -2 -37 -1 -44 3 -17 11 -53 2 -45 -11 4 -5 10 -5 18 1 7 6 17 6 26 1 16 -11 14 -11 -48 -14 -23 -1 -48 2 -55 6 -9 6 -9 8 1 8 6 0 11 3 10 8 -1 4 2 19 6 34 7 23 10 25 26 15 10 -6 17 -14 15 -17 -2 -4 6 -6 18 -5 12 1 33 -2 46 -7 15 -5 28 -5 36 2 7 6 17 10 21 9 26 -4 40 3 40 21 0 11 -4 20 -8 20 -4 0 -5 9 -3 19 2 14 -1 18 -10 15 -15 -6 -30 -35 -16 -31 22 6 11 -19 -15 -34 -36 -20 -63 -14 -57 12 3 10 9 19 14 19 5 0 5 -8 2 -17 -6 -15 -4 -16 9 -6 8 7 17 10 21 7 3 -3 4 2 3 13 -2 10 1 26 6 37 7 13 7 16 -1 12 -17 -11 -55 14 -42 27 7 7 14 7 23 0 7 -6 24 -14 38 -17 14 -4 21 -4 15 1 -9 8 -14 19 -20 53 -1 8 3 21 9 29 9 12 8 13 -4 6 -8 -5 -21 -10 -29 -10 -8 0 -15 -8 -17 -18 -1 -9 2 -15 7 -11 5 3 7 10 4 15 -4 5 -1 9 5 9 6 0 10 -8 8 -17 -2 -10 -12 -18 -23 -18 -11 0 -19 6 -17 13 3 15 -1 15 -32 1 -14 -7 -29 -25 -35 -40 -5 -16 -15 -29 -21 -29 -6 0 -9 4 -6 9 9 14 -22 7 -37 -9 -10 -10 -9 -11 2 -5 9 5 12 4 7 -3 -10 -17 -46 -15 -52 3 -5 11 -10 12 -27 4 -17 -10 -19 -9 -14 5 4 9 3 16 -2 16 -16 0 -21 -13 -9 -27 8 -11 7 -12 -6 -7 -9 3 -16 1 -16 -6 0 -6 4 -9 9 -5 16 9 20 -9 5 -23 -12 -11 -14 -10 -14 3 0 8 -5 15 -11 15 -5 0 -7 -5 -4 -10 10 -16 -17 -68 -37 -73 -25 -7 -23 -47 2 -54 23 -6 26 -19 6 -26 -19 -8 -36 12 -36 42 0 15 -4 22 -8 16 -4 -5 -14 -11 -22 -13 -10 -1 -9 3 5 14 11 8 19 20 17 25 -2 8 18 13 40 11 3 -1 9 5 12 13 4 10 -1 15 -17 15 -17 0 -19 2 -7 9 8 6 17 8 21 5 4 -2 10 0 13 5 4 5 2 13 -4 16 -14 8 -63 -23 -55 -35 3 -5 0 -12 -6 -16 -8 -5 -9 -3 -4 6 6 10 3 12 -11 7 -14 -5 -12 -2 6 12 l25 20 -25 10 c-24 9 -24 10 -2 10 12 1 22 -5 22 -11 1 -8 5 -7 13 4 9 11 18 13 29 7 12 -7 20 -2 33 18 16 24 16 26 1 20 -10 -4 -15 -3 -11 3 3 6 -1 10 -10 10 -9 0 -15 7 -13 16 2 10 -4 19 -12 22 -8 3 -12 1 -8 -3 5 -5 -2 -15 -13 -23 -13 -9 -17 -17 -10 -21 6 -4 1 -12 -12 -20 -12 -8 -19 -10 -15 -6 4 5 3 14 -4 22 -9 11 -8 13 3 11 8 -2 13 3 11 10 -1 6 4 11 10 10 8 -2 13 7 13 20 0 13 7 27 15 32 13 8 13 10 1 10 -8 0 -12 3 -8 6 3 3 14 1 24 -5 17 -10 16 -11 -5 -17 l-23 -7 23 -12 c13 -6 22 -17 20 -23 -3 -17 13 -15 28 3 7 8 20 15 29 16 9 1 5 4 -9 9 -19 6 -20 8 -6 9 15 1 16 3 6 16 -7 9 -19 14 -27 11 -7 -3 -13 1 -13 9 0 8 -5 15 -12 15 -6 0 -8 3 -5 6 4 4 13 2 20 -5 20 -16 49 -3 42 18 -3 11 5 27 20 41 14 13 25 28 25 34 0 6 -6 4 -13 -5 -7 -9 -18 -14 -24 -12 -7 3 -13 -3 -13 -14 0 -15 -2 -16 -10 -3 -9 13 -11 13 -19 0 -6 -9 -6 -19 0 -26 7 -9 5 -12 -8 -9 -10 1 -17 8 -15 15 2 7 -3 10 -11 7 -8 -3 -20 -1 -28 4 -9 6 -4 8 18 5 20 -2 34 2 37 10 4 10 -3 13 -24 10 -17 -2 -30 0 -30 4 0 4 25 11 55 15 30 3 57 10 60 15 3 5 22 6 43 3 32 -6 35 -4 25 9 -10 11 -10 17 -1 26 18 18 32 14 17 -5 -10 -12 -11 -15 -1 -9 10 6 11 1 6 -21 -6 -27 -6 -28 11 -8 9 11 14 14 10 8 -3 -7 -1 -13 4 -13 6 0 11 7 11 15 0 8 8 15 17 15 9 0 14 3 10 6 -3 4 1 13 9 21 8 8 12 18 9 22 -2 5 11 26 30 49 24 28 41 39 54 35 10 -3 21 2 24 10 11 29 -38 12 -73 -26 -20 -21 -45 -39 -55 -41 -11 -2 -18 -6 -17 -11 2 -4 -2 -12 -10 -17 -9 -7 -3 -8 17 -4 28 6 29 5 11 -9 -10 -8 -23 -12 -28 -9 -5 3 -7 2 -6 -3 2 -4 -1 -9 -7 -10 -13 -4 -14 38 -1 56 8 11 8 13 -1 7 -8 -4 -13 -1 -13 8 0 10 -6 13 -18 9 -15 -6 -15 -5 -3 11 8 9 20 15 27 12 14 -5 40 21 31 31 -4 3 -13 0 -22 -7 -8 -7 -22 -10 -30 -6 -10 3 -13 2 -10 -5 4 -5 2 -16 -5 -24 -8 -10 -6 -17 12 -30 22 -16 22 -17 1 -11 -16 5 -23 2 -28 -14 -3 -11 -11 -20 -17 -20 -7 0 -6 -5 1 -14 8 -10 9 -16 1 -21 -5 -3 -10 0 -10 8 0 23 -29 42 -42 29 -9 -9 -8 -12 5 -12 18 0 23 -15 8 -25 -6 -3 -14 3 -20 12 -6 11 -11 13 -11 5 0 -7 -4 -11 -9 -7 -5 3 -17 -2 -25 -11 -9 -8 -16 -12 -16 -8 0 5 -5 3 -11 -3 -6 -6 -17 -9 -24 -6 -10 3 -12 -2 -8 -16 3 -13 1 -21 -6 -21 -7 0 -10 -4 -6 -9 8 -13 -24 -29 -46 -24 -16 5 -19 -1 -19 -36 0 -22 5 -41 10 -41 6 0 10 5 10 10 0 6 7 10 16 10 14 0 14 -2 0 -15 -8 -8 -19 -15 -25 -15 -6 0 -11 -5 -11 -11 0 -5 6 -7 13 -3 9 6 9 4 -1 -8 -15 -18 -13 -148 2 -148 6 0 5 -5 -2 -12 -17 -17 -16 -72 1 -62 9 6 9 4 -1 -7 -16 -18 -16 -73 1 -63 9 6 9 4 -1 -7 -17 -19 -15 -32 6 -25 15 5 15 5 2 -6 -12 -10 -16 -35 -18 -97 -1 -46 1 -88 4 -92 3 -5 14 -4 24 1 16 8 18 8 14 -5 -6 -14 -17 -19 -36 -16 -8 1 -9 -339 -1 -351 2 -5 12 -3 21 4 16 12 16 11 0 -7 -12 -15 -16 -37 -15 -83 1 -34 -2 -63 -6 -65 -4 -1 1 -12 13 -25 18 -19 19 -22 4 -22 -10 0 -14 -3 -11 -7 4 -3 1 -13 -6 -21 -9 -13 -9 -14 0 -8 8 4 13 2 13 -8 0 -8 -5 -18 -10 -21 -6 -3 -10 -11 -10 -18 0 -6 7 -2 15 9 15 20 18 15 15 -28 -1 -16 4 -28 10 -28 8 0 7 -9 -5 -26 -9 -14 -14 -28 -11 -32 3 -3 6 0 6 6 0 7 5 12 11 12 6 0 18 9 27 20 13 15 21 17 32 10 13 -8 13 -10 -1 -10 -9 0 -24 -9 -35 -21 -16 -17 -16 -22 -4 -29 9 -6 10 -10 3 -10 -13 0 -11 -32 5 -72 8 -20 16 -26 29 -22 11 4 14 2 7 -3 -6 -4 -14 -17 -18 -27 -9 -24 13 -39 34 -23 13 10 13 10 2 -5 -15 -18 -8 -72 10 -96 6 -7 19 -27 28 -45 18 -32 18 -32 -9 -55 -14 -13 -19 -21 -11 -17 8 4 6 -1 -4 -9 -12 -10 -28 -14 -40 -10 -20 6 -20 6 -2 -9 24 -17 15 -50 -10 -40 -12 4 -15 3 -10 -5 5 -8 2 -10 -8 -6 -14 5 -14 8 -1 21 8 8 19 11 25 8 5 -3 10 -4 10 -1 0 3 -10 10 -21 17 -14 7 -19 7 -15 0 4 -5 -3 -15 -14 -21 -11 -6 -18 -15 -15 -21 4 -5 1 -8 -6 -7 -7 2 -17 -9 -23 -24 -8 -22 -6 -31 9 -48 16 -18 17 -20 2 -14 -14 5 -17 0 -17 -29 0 -25 5 -37 17 -40 17 -4 17 -5 1 -6 -21 -1 -24 -27 -5 -34 9 -4 9 -6 0 -6 -8 -1 -13 -15 -13 -35 0 -34 0 -34 32 -25 44 12 47 4 4 -11 l-36 -12 0 -64 0 -64 2565 0 2565 0 0 110 c0 79 -3 110 -12 110 -9 0 -9 3 0 12 7 7 12 34 12 60 0 31 -4 48 -12 48 -9 0 -9 3 0 12 14 14 16 98 2 98 -5 0 -10 -7 -10 -15 0 -7 -7 -18 -16 -23 -20 -11 -76 -3 -71 12 2 6 13 10 25 8 30 -4 82 45 82 77 l-1 26 -16 -30 c-20 -37 -45 -57 -54 -43 -7 11 -59 -18 -59 -32 0 -4 -6 -8 -13 -7 -36 1 -49 -4 -44 -18 4 -8 2 -17 -3 -20 -6 -4 -10 0 -10 7 0 7 -12 1 -25 -15 -25 -28 -40 -34 -50 -17 -4 6 1 7 11 3 12 -4 15 -3 10 5 -4 6 1 23 10 37 9 14 13 25 10 25 -4 0 -2 9 4 20 6 11 18 20 28 20 13 0 14 2 4 9 -18 11 -18 12 -3 39 6 12 17 22 23 22 9 0 9 -3 0 -12 -14 -14 -16 -28 -3 -28 15 0 25 42 12 50 -8 4 3 17 30 34 23 15 38 23 35 18 -3 -6 -2 -13 4 -17 6 -3 13 1 16 9 3 9 24 21 45 26 29 8 39 16 39 30 0 18 -3 19 -22 8 -13 -7 -33 -21 -44 -31 -15 -13 -24 -15 -29 -7 -5 8 -13 6 -26 -6 -11 -9 -22 -14 -26 -10 -10 9 9 25 35 29 13 2 31 10 41 19 10 8 24 18 32 22 8 3 -2 4 -21 1 -19 -3 -37 -10 -38 -15 -2 -6 -8 -8 -13 -4 -17 10 -9 22 21 29 16 4 32 11 35 16 4 5 -6 4 -21 -1 -15 -6 -28 -9 -30 -7 -7 6 47 77 59 77 7 0 6 4 -3 10 -18 11 -19 98 -1 109 7 4 11 12 10 17 -3 18 1 37 7 31 9 -9 36 21 29 33 -3 5 -13 10 -21 10 -18 0 -10 35 15 64 16 19 15 19 -9 3 -32 -22 -68 -24 -50 -3 6 8 19 12 28 9 9 -3 14 -3 10 1 -4 5 -2 20 3 34 16 42 -4 49 -51 18 -44 -29 -55 -23 -14 8 14 10 36 19 49 20 22 1 24 6 27 74 2 39 2 72 0 72 -2 0 -13 -5 -25 -11 -21 -11 -21 -10 2 15 24 26 38 62 20 50 -5 -3 -9 0 -9 5 0 6 5 11 10 11 6 0 10 19 10 43 -1 23 -1 346 -2 717 0 952 0 930 -9 930 -5 0 -5 11 0 23 6 14 5 29 0 38 -8 12 -10 12 -8 -1 3 -30 -1 -51 -9 -46 -4 2 -14 0 -22 -5 -12 -8 -11 -9 4 -7 22 4 30 -37 11 -55 -7 -6 -10 -19 -7 -29 2 -10 -2 -26 -9 -35 -13 -15 -12 -15 8 -5 28 15 30 15 30 -3 0 -8 -4 -15 -9 -15 -5 0 -6 -11 -2 -25 4 -17 2 -25 -7 -25 -11 0 -11 -3 1 -10 13 -9 12 -12 -4 -25 -11 -8 -29 -12 -41 -9 -13 3 -27 -1 -34 -10 -17 -20 -31 -20 -31 -1 0 12 -4 13 -25 3 -16 -7 -22 -15 -16 -22 14 -17 -6 -59 -25 -52 -9 4 -13 2 -8 -5 4 -6 0 -15 -7 -20 -9 -6 -10 -9 -2 -9 6 0 15 5 18 10 10 16 25 12 19 -5 -4 -8 -14 -15 -23 -15 -28 0 -32 -12 -10 -28 17 -12 18 -16 8 -23 -12 -7 -11 -11 1 -19 12 -7 11 -9 -6 -8 -19 2 -31 28 -12 28 4 0 8 4 8 9 0 4 -11 6 -25 3 -24 -4 -24 -5 -8 -18 10 -7 14 -14 9 -14 -5 0 -3 -6 3 -14 9 -11 6 -18 -16 -36 -19 -14 -22 -20 -9 -16 17 6 17 5 5 -11 -12 -15 -12 -16 3 -10 10 3 20 2 23 -4 4 -5 3 -8 -2 -7 -15 4 -58 -15 -76 -33 -18 -19 -43 -27 -32 -10 3 5 1 12 -4 15 -5 4 -8 -2 -7 -11 2 -10 -2 -21 -8 -26 -6 -4 0 -6 14 -5 16 2 24 -2 23 -9 -2 -7 6 -13 17 -13 23 0 26 -10 8 -28 -17 -17 -33 -15 -18 3 7 9 8 15 2 15 -5 0 -13 -7 -16 -16 -3 -8 -10 -13 -14 -10 -5 3 -9 -1 -9 -9 0 -8 5 -11 10 -8 6 4 8 0 4 -10 -3 -9 -2 -19 4 -22 5 -4 8 -3 7 2 -2 4 0 8 3 8 3 0 14 7 25 15 12 9 10 4 -5 -12 -13 -15 -28 -25 -32 -22 -5 3 -9 0 -9 -6 0 -8 -6 -7 -21 1 -17 9 -25 8 -38 -6 -15 -15 -14 -16 5 -13 18 2 27 -3 23 -14 -11 -36 -6 -38 29 -12 24 18 31 21 19 8 -9 -12 -14 -24 -10 -29 5 -4 4 -6 -2 -3 -5 3 -19 -3 -30 -14 -20 -19 -20 -19 10 -8 16 6 36 16 45 23 8 6 4 -1 -9 -15 -13 -15 -27 -25 -32 -23 -4 3 -5 -5 -1 -17 4 -16 2 -19 -9 -13 -12 8 -12 6 0 -9 8 -9 10 -16 5 -15 -20 3 -34 -2 -34 -12 0 -8 4 -9 13 0 8 6 17 8 20 4 4 -3 14 0 24 8 15 12 15 11 -1 -13 -16 -24 -16 -28 -3 -28 9 0 17 6 20 13 2 6 2 1 0 -11 -3 -17 0 -22 9 -17 7 4 1 -5 -14 -18 -15 -14 -24 -28 -20 -33 4 -4 2 -4 -4 -1 -15 8 -87 -56 -77 -68 5 -4 2 -5 -5 -1 -11 6 -10 12 3 26 11 12 13 20 6 25 -6 3 -12 4 -12 1 -1 -3 -2 -9 -3 -13 -1 -5 -7 -18 -14 -30 -11 -20 -10 -23 5 -23 14 0 15 -2 5 -9 -11 -7 -10 -9 3 -14 9 -4 14 -3 11 2 -7 11 24 38 44 39 8 0 28 3 43 7 20 4 26 2 22 -5 -4 -6 -13 -9 -21 -6 -8 3 -19 -6 -28 -22 -8 -15 -23 -35 -34 -45 -17 -15 -20 -16 -25 -3 -3 8 -16 20 -29 27 -22 12 -22 11 -8 -6 13 -17 13 -18 -1 -13 -9 4 -16 1 -16 -7 0 -10 5 -11 18 -4 23 12 29 11 29 -1 0 -5 -6 -10 -14 -10 -8 0 -18 -5 -21 -10 -9 -15 4 -30 20 -24 8 4 13 9 11 13 -2 3 8 7 22 8 24 1 23 -1 -11 -19 -35 -18 -40 -18 -51 -3 -10 14 -14 12 -35 -17 -13 -18 -18 -27 -10 -21 7 7 19 13 27 13 10 0 9 -5 -5 -17 -10 -10 -14 -15 -8 -11 7 4 22 9 34 11 13 2 26 8 29 13 10 13 35 17 27 4 -3 -5 -2 -10 4 -10 6 0 8 -7 5 -15 -4 -8 -11 -15 -16 -15 -6 0 -17 -8 -25 -17 -14 -17 -14 -17 -10 2 3 15 -1 21 -14 22 -10 1 -21 -2 -24 -8 -3 -5 1 -6 10 -3 17 7 17 -15 0 -29 -13 -9 26 -4 43 6 18 12 15 -3 -5 -26 -10 -11 -13 -17 -6 -14 6 4 15 2 19 -4 4 -8 3 -9 -4 -5 -7 4 -12 3 -12 -3 0 -17 19 -22 40 -11 27 15 25 -4 -2 -23 -23 -16 -23 -16 10 -13 33 3 56 22 46 38 -3 5 -10 5 -16 2 -6 -4 -8 -2 -4 4 3 6 18 9 32 6 18 -3 35 4 60 26 19 16 40 30 47 30 7 0 -1 -8 -18 -18 -16 -11 -36 -26 -44 -35 -7 -10 -20 -17 -28 -17 -10 0 -13 -6 -9 -16 3 -8 2 -12 -3 -9 -5 3 -13 -4 -16 -16 -5 -14 -10 -18 -17 -11 -7 7 -19 7 -35 1 -14 -5 -29 -7 -34 -3 -5 3 -10 0 -10 -5 -2 -14 -6 -29 -9 -36 -1 -3 -3 -10 -4 -17 0 -7 -12 -15 -26 -19 -24 -7 -24 -7 4 -8 39 -1 27 -11 -19 -16 -40 -3 -44 12 -6 31 12 6 22 15 22 20 -1 5 3 9 8 9 5 0 13 3 17 7 4 5 -2 8 -14 8 -11 0 -24 -5 -27 -10 -3 -5 -16 -10 -28 -10 -16 0 -18 -3 -9 -9 11 -6 7 -15 -17 -40 -37 -38 -40 -49 -8 -28 15 10 29 12 38 6 11 -7 10 -9 -4 -9 -10 0 -15 -4 -12 -10 3 -5 -2 -10 -12 -10 -11 0 -28 -7 -39 -16 -14 -12 -15 -14 -3 -11 9 3 22 0 28 -6 10 -9 12 -9 9 3 -2 9 6 15 21 16 13 1 28 9 33 18 6 11 16 15 30 10 12 -4 18 -2 14 4 -9 15 21 35 41 28 17 -6 17 -5 0 8 -14 10 -15 15 -5 19 8 4 6 6 -5 6 -14 1 -16 5 -8 20 6 10 8 20 6 23 -2 2 5 5 17 5 20 2 20 1 2 -12 -18 -14 -18 -14 -1 -15 11 0 21 9 24 19 3 12 11 17 19 14 11 -4 9 -11 -11 -31 -33 -33 -33 -53 1 -21 22 20 24 21 18 4 -4 -11 -20 -31 -35 -46 -15 -15 -26 -29 -23 -32 3 -2 -13 -7 -35 -11 -40 -6 -71 -28 -70 -49 0 -7 7 -2 16 11 8 12 23 22 32 22 14 0 14 -2 1 -10 -8 -5 -10 -10 -5 -10 6 0 1 -7 -9 -15 -11 -8 -16 -15 -10 -15 5 0 -7 -8 -26 -17 -40 -20 -91 -63 -74 -63 7 0 17 7 24 15 7 9 20 15 29 14 42 -4 81 2 81 12 0 7 8 18 18 26 15 13 15 13 -8 7 -22 -6 -23 -5 -8 10 9 9 28 16 42 16 14 0 28 5 31 10 3 6 13 10 22 10 11 0 9 -5 -8 -18 -13 -10 -32 -21 -41 -25 -19 -7 -44 -47 -29 -47 15 0 -18 -52 -46 -73 -24 -18 -24 -18 -18 5 7 29 -33 53 -53 31 -10 -10 -10 -13 1 -13 16 0 17 -39 2 -57 -5 -7 -16 -19 -22 -27 -21 -25 -15 -26 30 -7 23 10 41 21 40 24 -7 18 73 75 85 61 4 -4 2 -9 -5 -11 -16 -6 -66 -53 -56 -53 19 -1 -33 -30 -53 -30 -13 0 -24 -8 -27 -19 -4 -16 0 -19 20 -17 14 2 29 9 34 17 4 8 17 14 28 15 23 1 36 -42 14 -50 -8 -3 -11 -2 -8 4 3 5 -10 8 -31 6 -23 -2 -41 -10 -47 -22 -12 -23 -26 -33 -41 -30 -6 2 -7 1 -3 -2 4 -2 2 -11 -5 -20 -11 -13 -11 -14 1 -8 8 5 17 3 22 -5 13 -20 11 -29 -4 -23 -8 3 -20 -3 -28 -12 -13 -16 -11 -17 18 -11 25 5 31 3 29 -10 -2 -9 -9 -19 -17 -21 -11 -3 -11 -1 1 7 13 9 13 11 -2 11 -21 0 -21 -1 -8 -35 5 -14 6 -24 2 -21 -13 8 -75 -53 -69 -68 4 -9 -2 -12 -18 -8 -17 3 -27 -2 -36 -20 -6 -12 -18 -27 -26 -31 -23 -14 -4 -28 20 -15 12 7 26 11 30 10 5 -1 6 1 3 6 -3 5 2 18 10 28 9 10 12 12 8 4 -7 -13 -5 -13 9 -1 9 7 15 17 12 21 -3 5 8 18 24 29 34 24 115 55 106 41 -3 -6 -1 -10 4 -10 6 0 11 5 11 10 0 6 6 10 14 10 7 0 19 6 25 13 12 15 74 11 65 -5 -3 -5 6 -6 23 -2 26 7 26 6 12 -9 -10 -10 -25 -14 -39 -10 -13 4 -25 0 -31 -8 -6 -9 -9 -10 -9 -2 0 7 8 17 18 22 15 9 15 10 -5 11 -12 0 -35 -11 -50 -25 -15 -13 -22 -25 -15 -25 6 0 12 -7 12 -15 0 -17 -17 -20 -22 -4 -2 7 -10 4 -18 -7 -12 -14 -12 -16 -1 -9 9 5 12 4 8 -2 -4 -6 -18 -9 -33 -7 -14 1 -23 0 -20 -3 3 -4 0 -13 -7 -21 -10 -13 -9 -15 6 -9 9 4 25 10 35 14 14 6 15 4 4 -9 -7 -9 -23 -19 -36 -22 -14 -3 -29 -19 -36 -37 -9 -22 -15 -27 -21 -17 -7 10 -12 11 -29 0 -22 -14 -25 -10 -10 19 15 27 -5 25 -24 -3 -9 -12 -16 -17 -16 -10 0 7 -5 10 -10 7 -6 -4 -8 -11 -5 -16 4 -5 1 -9 -4 -9 -6 0 -11 -5 -11 -11 0 -7 8 -9 23 -4 12 3 29 7 37 7 8 0 20 4 25 9 6 4 19 1 29 -7 19 -13 19 -14 -5 -14 -19 0 -21 -2 -9 -10 12 -8 11 -12 -9 -31 -19 -18 -25 -19 -32 -8 -5 8 -9 9 -9 3 0 -7 -7 -14 -15 -18 -13 -5 -13 -2 1 25 8 17 11 28 5 24 -6 -3 -24 0 -40 8 -26 13 -28 13 -24 -3 3 -12 12 -16 26 -14 21 4 21 4 2 -5 -11 -5 -31 -20 -45 -33 -33 -33 -68 -51 -85 -44 -9 3 -12 0 -9 -9 3 -7 -4 -18 -15 -25 -15 -8 -21 -8 -21 0 0 6 -4 8 -10 5 -19 -12 -10 6 16 31 24 25 24 27 7 41 -10 8 -13 12 -7 9 6 -3 11 0 11 7 0 7 -8 13 -17 13 -14 0 -16 -5 -10 -27 10 -34 -17 -50 -37 -23 -8 10 -13 13 -13 6 0 -10 -3 -10 -14 0 -12 11 -9 16 16 32 20 13 26 21 18 26 -9 6 -9 9 1 13 8 4 -5 5 -28 3 -39 -3 -41 -2 -32 17 11 19 11 19 -14 1 -14 -11 -23 -21 -21 -23 2 -2 -1 -10 -8 -18 -10 -12 -7 -13 18 -8 22 5 25 4 14 -4 -8 -6 -21 -11 -29 -11 -8 0 -24 -8 -35 -18 -17 -14 -19 -14 -8 0 9 11 10 18 2 23 -7 4 1 17 21 34 28 25 29 29 14 35 -10 4 -21 2 -25 -4 -4 -7 -15 -10 -25 -8 -9 2 -22 -5 -28 -14 -15 -23 -2 -34 18 -14 25 25 26 20 4 -22 -20 -37 -57 -62 -91 -62 -10 0 -21 -7 -24 -15 -4 -10 -13 -13 -26 -9 -10 3 -30 -1 -43 -10 -24 -16 -24 -16 -14 7 8 18 17 22 40 19 16 -2 29 0 29 6 0 9 26 19 68 28 28 5 42 14 42 25 0 7 -9 9 -21 6 -16 -4 -18 -3 -8 9 14 17 -2 19 -19 2 -9 -9 -12 -7 -12 10 0 16 10 26 36 37 20 8 40 12 45 9 5 -3 9 0 9 7 0 6 19 29 42 50 23 21 39 42 35 46 -5 4 -12 1 -18 -7 -7 -13 -10 -13 -18 -1 -5 8 -11 9 -15 3 -3 -6 -2 -12 4 -14 15 -5 -18 -48 -37 -48 -15 0 -14 2 2 14 12 8 16 19 12 31 -6 14 -14 16 -43 10 -27 -5 -34 -3 -28 6 4 8 3 10 -5 5 -17 -11 -3 -26 25 -26 13 0 24 -4 24 -9 0 -13 -30 -35 -37 -27 -4 4 -1 11 7 16 13 8 12 10 -2 10 -16 0 -25 -29 -19 -63 1 -8 -38 14 -40 23 -1 3 -2 20 -3 37 -2 24 3 34 16 39 10 3 18 13 19 22 0 11 3 12 6 5 7 -18 32 -16 39 2 7 18 25 20 21 3 -1 -7 9 -13 25 -13 15 -1 24 3 22 7 -3 4 1 8 9 8 8 0 17 6 20 14 4 11 -4 9 -29 -6 -19 -11 -34 -15 -34 -9 0 6 6 11 13 11 9 0 8 3 -2 9 -7 5 -10 14 -7 20 18 29 -38 5 -95 -41 -20 -16 -43 -30 -50 -32 -26 -4 -62 -28 -52 -35 7 -4 7 -15 1 -31 -7 -18 -11 -21 -17 -11 -6 9 -10 5 -15 -13 -4 -15 -11 -24 -16 -21 -6 3 -10 -1 -10 -9 0 -17 -12 -21 -24 -9 -4 4 3 15 16 25 13 10 17 18 10 18 -7 0 -10 5 -7 10 4 6 11 7 17 4 7 -4 8 -2 4 4 -4 7 -1 12 6 13 7 0 4 4 -7 9 -15 6 -24 2 -37 -13 -9 -12 -15 -24 -12 -28 2 -4 -6 -9 -19 -13 -17 -5 -19 -8 -8 -15 11 -7 11 -9 0 -14 -10 -4 -10 -6 -1 -6 9 -1 10 -5 0 -20 -6 -11 -18 -17 -26 -13 -10 3 -13 1 -8 -6 4 -6 -1 -11 -11 -11 -10 0 -30 -3 -45 -7 -19 -4 -28 -2 -28 5 0 7 5 9 10 6 6 -3 10 -1 10 4 0 6 3 10 8 10 20 -3 28 3 28 21 0 27 -23 25 -48 -2 -11 -13 -16 -17 -13 -10 6 11 3 12 -14 3 -24 -13 -25 -15 -10 -42 5 -11 14 -17 20 -14 5 4 9 2 9 -4 0 -11 -38 -26 -57 -23 -7 2 -13 -2 -13 -7 0 -5 -9 -12 -19 -16 -11 -3 -22 -13 -25 -21 -5 -12 -1 -14 17 -8 12 4 25 12 29 18 5 7 8 4 8 -6 0 -10 -7 -18 -15 -18 -9 0 -18 -7 -21 -15 -9 -23 -34 -18 -34 6 0 15 -4 19 -16 15 -9 -3 -18 -6 -20 -6 -2 0 -4 -5 -4 -10 0 -17 -39 -54 -47 -45 -5 4 -2 10 5 12 10 4 10 8 0 20 -11 14 -10 15 11 8 19 -6 23 -4 18 8 -4 11 2 17 23 22 33 7 39 15 57 63 10 31 10 33 -7 29 -11 -3 -21 0 -24 7 -2 6 -5 -1 -5 -16 -1 -16 4 -28 10 -28 22 0 3 -34 -23 -41 -22 -6 -26 -4 -23 12 4 22 -9 24 -55 7 -36 -12 -72 -43 -62 -52 6 -6 3 -7 -38 -11 -14 -1 -33 -6 -42 -10 -11 -4 -18 -3 -18 4 0 8 -4 8 -14 -1 -7 -7 -11 -19 -8 -26 2 -8 8 -9 11 -4 3 5 18 12 33 16 25 6 27 4 19 -16 -4 -13 -7 -29 -5 -36 1 -7 0 -8 -2 -3 -3 6 -13 7 -21 4 -13 -5 -15 -2 -10 12 6 15 5 16 -7 6 -8 -7 -17 -8 -20 -3 -4 6 -21 7 -43 2 -43 -10 -51 -7 -33 15 10 13 10 19 -3 33 -13 15 -14 21 -4 32 7 8 8 10 1 7 -7 -4 -14 3 -17 15 -5 18 -8 19 -21 8 -20 -16 -21 -34 -1 -26 8 3 15 1 15 -3 0 -5 3 -16 6 -25 4 -10 1 -16 -9 -16 -8 0 -17 6 -20 13 -4 9 -7 9 -18 0 -7 -7 -28 -13 -45 -13 -18 0 -36 -4 -39 -10 -3 -5 -11 -10 -18 -10 -6 0 -2 7 9 15 10 8 28 15 38 15 11 0 27 7 37 16 20 18 14 55 -7 47 -8 -3 -14 1 -14 9 0 7 -10 14 -21 15 -12 1 -23 4 -26 7 -7 7 6 26 18 26 6 0 7 -5 3 -12 -4 -7 -3 -8 4 -4 18 11 14 26 -7 26 -11 0 -23 -9 -26 -21 -5 -16 -13 -20 -31 -16 -14 2 -23 2 -20 0 3 -3 -8 -16 -25 -30 -34 -29 -38 -43 -9 -36 11 3 17 10 13 16 -4 6 2 8 15 5 15 -4 23 0 27 13 4 10 13 19 22 19 9 0 13 -6 9 -15 -3 -8 -1 -15 5 -15 25 0 0 -25 -27 -27 -16 -1 -34 -9 -40 -17 -6 -9 -15 -12 -20 -6 -5 5 -14 2 -22 -6 -7 -8 -8 -14 -2 -14 5 0 10 -4 10 -9 0 -5 -11 -8 -25 -8 -14 0 -25 3 -25 8 0 5 6 9 13 9 9 0 9 2 0 8 -20 13 -89 6 -114 -11 -26 -19 -43 -12 -17 7 10 7 15 15 12 18 -3 3 11 5 30 3 40 -2 49 2 65 32 6 13 23 26 36 29 14 3 25 11 25 16 0 5 -25 -4 -56 -21 -44 -24 -56 -27 -61 -15 -3 8 1 22 8 31 12 15 12 16 -6 9 -11 -4 -16 -3 -11 1 4 4 17 8 29 8 11 0 22 6 25 13 5 17 -49 5 -64 -14 -6 -8 -17 -14 -23 -14 -14 0 -81 -71 -76 -80 2 -4 -2 -7 -10 -7 -18 0 -18 2 -2 19 6 8 21 24 32 38 18 21 18 23 2 17 -11 -4 -16 -3 -12 3 3 6 16 10 28 10 25 0 57 31 57 55 0 8 -5 15 -12 15 -6 0 -8 -3 -5 -7 8 -8 -11 -33 -25 -33 -7 0 -6 5 1 13 8 10 7 14 -4 14 -8 0 -15 -6 -15 -14 0 -7 -5 -13 -11 -13 -5 0 -8 4 -5 8 2 4 1 14 -5 22 -6 11 -9 9 -9 -11 0 -15 -8 -33 -17 -40 -16 -12 -17 -12 -7 1 5 8 10 24 10 35 -1 15 -7 20 -28 19 -42 -2 -34 13 11 20 37 6 58 27 45 47 -3 5 -2 9 3 8 23 -4 35 2 30 16 -4 8 -2 17 3 20 6 4 10 2 10 -4 0 -12 39 -26 65 -22 16 3 17 1 6 -13 -11 -13 -9 -17 14 -26 33 -13 38 -13 30 0 -3 6 1 10 9 10 9 0 16 -4 16 -10 0 -5 7 -10 16 -10 12 0 15 -6 11 -21 -5 -20 -5 -20 13 -4 11 10 18 21 15 25 -2 4 9 7 26 8 25 1 28 -2 18 -14 -7 -8 -7 -14 -1 -14 15 0 22 26 9 39 -16 16 3 14 110 -9 130 -28 235 -28 301 0 29 12 66 39 83 58 103 117 75 219 -133 485 -41 52 -66 92 -62 100 4 6 3 9 -1 4 -16 -14 -45 24 -38 51 4 16 2 23 -5 18 -6 -3 -12 0 -14 8 -8 37 -320 356 -348 356 -5 0 -10 6 -10 13 0 6 -18 21 -40 31 -22 10 -37 23 -34 27 8 13 -10 11 -25 -3 -11 -11 -11 -9 -2 9 17 33 13 39 -9 13 -21 -24 -26 -20 -11 9 8 14 -8 34 -87 112 -53 52 -126 120 -162 153 -65 58 -46 47 46 -29 27 -22 105 -89 173 -150 69 -60 138 -121 154 -135 41 -34 234 -228 375 -377 64 -68 118 -121 120 -118 3 2 -5 20 -16 40 -18 29 -19 35 -6 35 8 0 13 4 9 10 -3 5 -11 7 -18 4 -15 -5 -21 33 -6 41 10 7 -7 43 -46 100 -13 20 -29 53 -35 73 -6 20 -20 55 -30 77 -23 51 -32 89 -24 109 5 13 16 15 56 10 49 -7 50 -7 36 15 -7 12 -19 19 -26 16 -7 -3 -10 0 -7 5 4 6 0 16 -7 23 -7 6 -36 32 -63 57 -28 25 -49 48 -48 52 2 4 -9 11 -24 15 -15 3 -33 12 -40 18 -6 7 -33 15 -60 19 -39 5 -51 11 -65 35 -12 22 -27 32 -55 37 -45 8 -73 21 -73 34 0 5 8 6 18 3 15 -6 15 -5 3 10 -7 9 -16 15 -20 13 -4 -3 -13 -1 -21 5 -30 18 88 9 183 -15 96 -25 143 -44 186 -77 13 -11 28 -19 32 -19 12 0 -18 72 -34 82 -7 4 -8 8 -4 8 5 0 -11 22 -35 49 -39 44 -148 195 -148 206 0 3 -15 26 -34 52 -18 27 -109 174 -201 328 -93 154 -182 297 -198 318 -16 21 -63 61 -104 88 -82 56 -109 89 -191 234 -31 55 -59 102 -63 105 -4 3 -2 24 4 47 12 46 6 63 -16 45 -14 -12 -42 -14 -133 -9 -31 1 -50 6 -47 13 2 5 15 10 28 10 14 -1 26 3 27 8 3 8 -12 14 -54 18 -10 1 -18 5 -18 8 0 11 -35 8 -42 -4 -5 -7 -8 -7 -8 2 0 7 -5 10 -10 7 -5 -3 -10 1 -10 9 0 9 7 16 15 16 8 0 15 4 15 9 0 5 -11 8 -25 6 -14 -1 -25 3 -25 9 0 6 -5 4 -10 -4 -8 -12 -10 -12 -10 5 0 15 -2 17 -9 6 -7 -11 -9 -11 -14 0 -4 9 -6 10 -6 2 -1 -17 -31 -4 -31 13 0 8 7 14 15 14 8 0 15 4 15 8 0 8 -50 14 -128 16 -27 0 -34 5 -42 31 l-10 30 5 -35 c3 -22 2 -30 -4 -21 -7 11 -9 11 -14 0 -3 -8 -4 2 -1 21 3 27 2 31 -5 15 l-10 -20 0 20 c-1 11 -6 27 -12 35 -8 11 -9 9 -4 -10 5 -16 4 -22 -3 -15 -12 12 -25 78 -14 71 4 -2 9 5 9 17 2 21 1 21 -12 3 -9 -11 -13 -34 -11 -55 3 -20 2 -30 -1 -23 -2 6 -9 9 -15 6 -7 -4 -7 0 0 13 6 10 7 25 3 32 -7 11 -10 11 -14 0 -3 -8 -4 0 -3 16 2 17 1 24 -1 16 -4 -12 -6 -12 -15 0 -6 10 -7 3 -4 -21 l6 -35 -11 30 c-6 17 -13 37 -16 45 -4 12 -7 11 -12 -4 -7 -19 -8 -19 -13 0 -4 16 -1 21 16 20 11 -1 27 -5 34 -9 17 -11 16 20 -3 72 -8 22 -10 41 -5 41 4 0 11 -6 13 -12 4 -10 6 -10 6 0 1 7 -6 15 -15 19 -10 4 -13 14 -9 32 3 14 1 40 -5 56 -8 26 -9 24 -4 -15 4 -33 2 -41 -5 -30 -15 21 -13 2 5 -59 8 -29 13 -60 11 -69 -4 -14 -5 -13 -6 3 -1 11 -8 40 -16 65 l-15 45 5 -40 c3 -28 1 -35 -5 -25 -5 8 -10 23 -10 32 0 9 -5 29 -11 45 -10 26 -12 27 -20 8 -6 -13 -6 -7 -2 20 6 45 13 59 13 27 0 -11 5 -24 10 -27 6 -3 10 -16 11 -28 1 -16 3 -13 10 11 8 26 7 37 -3 45 -7 7 -12 11 -9 10 2 -1 10 5 18 13 8 8 19 12 24 9 5 -4 9 4 8 17 0 13 -3 17 -6 11 -7 -18 -20 -16 -20 2 0 8 4 12 9 9 4 -3 8 3 9 13 0 11 6 4 15 -17 13 -33 14 -33 9 -5 -3 17 -13 49 -22 72 -15 41 -40 57 -86 56 -12 0 -16 5 -12 17 3 10 1 21 -4 25 -7 3 -8 0 -5 -10 5 -11 2 -14 -12 -9 -11 4 -25 11 -31 17 -7 5 -13 6 -13 1 -1 -5 -7 2 -15 16 -10 18 -14 20 -15 8 0 -9 5 -20 10 -23 6 -3 10 -16 9 -28 0 -19 -1 -20 -8 -4 -4 10 -11 18 -16 18 -6 0 -9 10 -7 23 2 12 -4 29 -12 36 -9 7 -16 23 -16 36 0 13 -4 24 -10 24 -5 0 -6 7 -3 17 4 9 2 14 -3 11 -5 -4 -10 10 -12 30 -2 35 -2 35 14 17 8 -11 13 -15 10 -8 -11 22 5 43 30 39 19 -4 24 0 24 17 0 16 -3 18 -9 9 -7 -11 -9 -11 -14 2 -4 10 1 16 16 19 18 4 17 5 -5 6 -16 0 -28 6 -28 12 0 5 4 7 10 4 6 -3 7 1 3 10 -4 12 -8 13 -13 5 -6 -9 -9 -9 -13 1 -4 11 -6 11 -6 0 -1 -11 -5 -10 -16 5 -8 10 -15 14 -15 9 0 -24 -39 -13 -49 13 -5 15 -10 20 -11 12 0 -8 -12 5 -25 30 -26 48 -30 65 -16 56 5 -4 7 3 4 14 -3 11 -9 23 -14 26 -5 3 -6 -3 -4 -13 3 -10 -4 1 -17 25 -12 23 -26 42 -30 42 -5 0 -4 -9 2 -21z m-92 -1126 c31 -21 59 -41 60 -45 2 -5 10 -8 18 -8 8 0 14 -4 14 -8 0 -4 12 -13 28 -20 15 -6 77 -44 137 -82 269 -172 486 -247 792 -275 180 -16 219 -28 278 -84 22 -21 67 -56 100 -78 33 -23 69 -53 80 -68 11 -15 26 -33 32 -40 10 -10 9 -15 -5 -21 -9 -4 -21 -9 -27 -9 -5 -1 -30 -11 -55 -22 -83 -37 -154 -57 -158 -44 -2 6 -11 11 -21 11 -9 0 -26 6 -36 14 -17 12 -26 11 -68 -5 -37 -15 -48 -16 -44 -6 3 9 -13 23 -47 40 -29 15 -56 27 -60 27 -10 0 -134 48 -176 68 -19 9 -61 36 -95 60 -33 23 -78 55 -100 71 -22 15 -98 58 -169 95 -71 37 -141 76 -154 87 -14 10 -28 19 -32 19 -22 0 -173 98 -218 142 -45 44 -91 116 -92 145 -1 4 -14 19 -30 33 -31 25 -38 40 -20 40 6 0 36 -17 68 -37z m759 -163 c45 -11 148 -24 230 -31 140 -11 176 -19 159 -36 -4 -4 -11 -1 -16 7 -7 11 -10 8 -15 -13 -4 -15 -11 -24 -16 -22 -4 3 -6 13 -3 23 5 16 5 16 -8 1 -10 -13 -26 -16 -68 -13 -76 6 -93 9 -108 18 -6 4 -16 4 -22 1 -5 -3 -10 -1 -10 5 0 6 -4 9 -9 5 -5 -3 -13 -1 -16 5 -4 6 -15 8 -26 5 -10 -4 -19 -2 -19 3 0 6 -9 8 -20 5 -12 -3 -20 0 -20 6 0 7 -4 10 -8 7 -4 -2 -26 4 -49 14 -23 10 -44 16 -47 12 -3 -3 -6 0 -6 6 0 6 -6 12 -12 15 -14 4 -13 4 109 -23z m808 -710 c-3 -5 3 -10 15 -10 12 0 19 -4 15 -9 -3 -5 3 -16 13 -23 14 -10 48 -78 39 -78 -1 0 -35 -11 -75 -25 -71 -24 -92 -25 -92 -4 0 5 -12 22 -26 37 -46 49 -48 59 -12 78 31 16 103 42 121 43 5 1 5 -3 2 -9z m225 -290 c0 -11 7 -23 15 -26 8 -4 15 -12 15 -20 0 -8 6 -14 13 -15 9 0 9 -2 0 -6 -16 -6 8 -33 29 -33 9 -1 8 -4 -3 -10 -9 -5 -53 -12 -98 -16 -77 -7 -83 -6 -107 17 -14 13 -32 36 -40 51 -14 27 -14 28 23 43 31 13 69 22 146 34 4 0 7 -8 7 -19z m198 -299 c7 -4 14 -19 15 -32 0 -13 5 -27 10 -30 17 -12 -2 -42 -22 -36 -14 3 -17 0 -14 -14 3 -11 0 -19 -6 -19 -6 0 -11 7 -11 15 0 8 -14 17 -34 20 -42 8 -106 60 -106 86 0 17 8 19 78 19 42 0 83 -4 90 -9z m-2486 -743 c-17 -17 -15 -48 4 -48 11 0 15 6 11 20 -5 20 -2 21 55 34 26 6 26 5 15 -24 -8 -22 -18 -30 -35 -30 -13 0 -20 -4 -17 -10 3 -5 0 -10 -7 -10 -8 0 -7 -6 5 -17 13 -13 20 -14 28 -6 9 9 18 9 31 2 10 -5 23 -7 28 -4 5 3 11 1 15 -5 3 -5 -2 -10 -12 -10 -10 0 -28 -7 -40 -15 -12 -8 -24 -11 -27 -6 -3 5 1 12 10 15 9 4 14 9 11 13 -4 3 -13 0 -22 -7 -12 -10 -15 -10 -15 0 0 9 -7 8 -24 -3 -24 -16 -30 -7 -13 19 4 7 -1 21 -11 32 -17 20 -17 20 -42 -5 -14 -14 -19 -23 -12 -19 6 4 12 3 12 -3 0 -5 -6 -12 -12 -14 -10 -4 -10 -6 -1 -6 6 -1 15 4 18 9 3 6 12 10 18 10 7 -1 1 -10 -12 -20 -19 -17 -26 -18 -39 -8 -13 11 -14 11 -7 -1 6 -11 4 -13 -7 -9 -8 4 -15 0 -15 -8 0 -7 5 -11 11 -8 6 3 3 -1 -7 -9 -11 -9 -14 -18 -8 -21 5 -4 12 -2 16 4 3 5 11 10 18 10 6 0 2 -6 -9 -14 -12 -9 -23 -11 -30 -5 -15 12 -47 -18 -38 -33 4 -7 2 -8 -4 -4 -7 4 -12 3 -12 -3 0 -5 5 -12 10 -14 6 -3 5 -4 -2 -3 -22 5 -15 50 10 70 13 10 21 25 18 33 -3 8 -1 11 4 8 6 -3 7 1 4 9 -13 33 -44 13 -74 -47 -8 -16 -16 -24 -18 -18 -2 6 3 20 12 32 12 17 13 27 4 43 -10 18 -9 19 4 9 9 -8 18 -9 24 -3 5 5 26 10 46 12 21 1 35 4 33 7 -3 2 11 14 32 25 34 20 64 58 32 42 -8 -4 -5 0 5 8 23 19 46 22 28 4z m39 -152 c-8 -10 -9 -16 -1 -21 5 -3 10 -2 10 3 0 12 48 31 73 30 16 -1 15 -5 -7 -25 -26 -24 -35 -53 -16 -53 6 0 10 -8 10 -18 0 -10 5 -23 10 -28 7 -7 4 -23 -9 -50 -11 -21 -25 -51 -32 -66 -6 -15 -16 -25 -21 -22 -4 3 -8 -4 -8 -16 0 -22 -18 -34 -46 -28 -16 3 -16 4 1 18 14 11 17 12 11 1 -6 -9 -5 -12 4 -9 15 5 27 30 13 27 -4 -1 -15 -1 -23 0 -12 1 -11 4 3 12 9 6 15 14 12 19 -3 4 7 11 21 14 15 4 24 9 22 12 -3 2 -17 0 -32 -6 -18 -6 -25 -14 -20 -22 5 -9 2 -9 -9 1 -18 14 -23 26 -8 17 5 -3 12 1 15 10 3 8 11 12 17 8 7 -4 9 -3 5 4 -3 6 -2 13 3 16 5 4 12 2 16 -4 3 -5 12 -10 18 -10 8 0 8 3 -1 9 -10 6 -8 10 8 14 13 3 19 10 15 17 -3 6 -1 9 6 8 6 -2 13 2 16 9 5 13 -15 11 -59 -6 -29 -11 -34 -6 -19 18 5 7 14 10 21 6 12 -8 41 25 34 37 -9 14 -34 8 -34 -7 0 -8 -7 -15 -15 -15 -14 0 -19 12 -16 33 2 12 -13 7 -39 -13 -21 -17 -21 -19 -5 -14 16 5 17 4 5 -5 -11 -8 -18 -7 -27 6 -9 12 -16 13 -26 5 -10 -9 -14 -9 -14 1 0 7 12 14 26 15 14 1 28 8 33 15 6 9 8 9 8 -1 0 -17 17 -6 31 20 10 18 9 20 -5 15 -9 -4 -15 -1 -13 6 1 7 -4 11 -11 9 -8 -1 -11 2 -7 8 5 8 11 7 21 -1 8 -6 18 -8 22 -4 4 4 1 10 -7 13 -11 4 -11 6 0 13 20 12 35 -7 20 -25z m1859 -11 c7 -8 16 -13 20 -10 14 9 37 -70 45 -154 l4 -41 -24 18 c-14 9 -22 23 -20 30 3 7 1 11 -4 8 -5 -3 -24 13 -43 37 -55 67 -58 76 -35 103 24 28 40 30 57 9z m750 -505 c10 -5 20 -20 23 -32 8 -29 87 -66 140 -66 30 0 40 5 47 22 5 11 9 15 9 9 1 -15 47 0 73 24 25 22 24 -2 -1 -42 -29 -48 -70 -83 -116 -101 -60 -22 -164 -16 -226 14 -57 28 -131 90 -123 104 4 6 0 14 -7 19 -10 6 -11 9 -1 9 6 0 12 7 12 15 0 9 10 20 23 25 30 12 124 12 147 0z m806 -122 c5 -7 9 -21 9 -32 1 -10 9 -24 18 -31 24 -17 21 -22 -13 -29 -17 -3 -30 -9 -29 -13 4 -23 -2 -35 -17 -29 -8 3 -13 2 -9 -3 6 -11 -54 -43 -66 -35 -5 3 -9 -2 -9 -10 0 -9 -7 -16 -16 -16 -8 0 -12 5 -9 10 8 13 -5 13 -25 0 -15 -9 -16 -13 -19 -46 0 -8 -5 -12 -11 -9 -11 7 -50 -12 -63 -29 -6 -7 -7 -6 -5 3 2 8 13 19 23 25 28 16 54 47 71 83 8 20 24 35 39 39 14 3 25 10 25 15 0 5 6 9 14 9 8 0 22 9 30 21 8 12 19 18 26 14 15 -9 40 13 33 31 -3 8 -9 14 -15 14 -5 0 -6 -4 -3 -10 3 -5 0 -10 -8 -10 -10 0 -13 8 -9 25 5 26 26 33 38 13z"/>
<path d="M643 4904 c-7 -3 -9 -12 -6 -21 5 -12 3 -14 -7 -8 -9 5 -11 4 -6 -3 4 -7 3 -26 -2 -44 -10 -38 -6 -59 11 -53 11 4 77 14 104 17 7 1 16 17 19 36 5 26 2 38 -13 53 -19 20 -78 33 -100 23z"/>
<path d="M311 4733 c-76 -87 -177 -242 -174 -270 2 -30 4 -34 13 -28 6 3 10 2 10 -3 0 -15 -28 -23 -36 -10 -5 7 -2 8 6 3 9 -6 11 -4 5 5 -13 22 -37 -18 -24 -41 7 -15 6 -17 -6 -13 -9 4 -15 0 -15 -9 0 -8 -9 -42 -20 -77 -30 -95 -52 -241 -56 -389 -2 -73 -7 -138 -10 -142 -3 -5 -2 -18 1 -30 5 -14 10 -17 19 -10 9 7 12 4 13 -12 0 -12 -1 -17 -4 -10 -2 7 -11 9 -19 6 -11 -4 -13 -24 -12 -93 2 -49 5 -85 8 -81 3 5 14 5 25 1 17 -6 16 -7 -8 -14 -24 -6 -27 -11 -26 -49 0 -38 1 -40 11 -19 12 23 45 26 41 4 -2 -7 2 -12 7 -12 13 0 13 17 0 25 -5 3 -7 12 -3 20 6 17 -12 21 -22 5 -3 -5 -11 -10 -18 -10 -6 0 -2 6 9 14 23 16 90 13 86 -4 -1 -6 2 -9 7 -5 13 7 3 35 -13 36 -6 1 -20 0 -31 -1 -16 -1 -12 6 18 35 21 19 36 39 33 43 -2 4 9 14 25 21 16 7 27 17 23 22 -3 5 -1 9 4 9 6 0 12 7 16 15 5 13 2 14 -15 4 -11 -6 -23 -8 -26 -6 -6 7 38 31 57 32 10 0 14 8 12 23 -2 12 2 22 9 22 6 0 9 8 6 20 -6 23 -3 24 25 9 15 -8 19 -8 14 0 -4 6 -2 11 5 11 7 0 5 6 -5 13 -16 12 -17 15 -3 20 8 3 18 19 22 36 4 20 11 29 18 24 7 -3 9 -3 5 2 -4 4 1 19 12 33 19 23 18 48 -1 37 -5 -4 -9 -2 -9 4 0 5 -8 12 -17 14 -10 2 -2 2 17 0 36 -5 33 12 -4 19 -19 3 -19 3 -1 18 11 8 16 10 12 3 -7 -12 17 -12 29 0 6 6 -6 12 -65 32 -19 7 5 35 30 35 12 0 16 5 13 14 -4 11 0 13 15 9 11 -3 17 -11 15 -18 -4 -9 1 -12 13 -11 11 2 17 10 15 22 -5 29 -21 41 -31 25 -10 -16 -31 -6 -31 14 0 7 -6 16 -12 18 -8 3 -6 6 5 6 9 1 17 -4 17 -11 0 -9 3 -9 11 -1 16 16 0 36 -25 29 -20 -5 -20 -5 -2 9 11 8 24 21 29 27 5 8 6 5 2 -9 -4 -14 -2 -23 4 -23 6 0 11 5 11 10 0 6 6 10 14 10 8 0 18 9 21 20 4 11 11 17 17 14 7 -4 8 -2 4 4 -9 15 18 55 29 44 5 -4 5 -1 1 6 -4 7 -2 12 6 12 8 0 5 5 -5 11 -10 6 -27 9 -37 6 -21 -5 -21 16 0 36 10 10 12 9 7 -5 -8 -24 -2 -23 37 7 18 14 36 23 39 20 4 -3 5 -2 2 2 -8 10 -59 11 -72 0 -9 -6 -13 -6 -13 1 0 6 7 15 16 20 10 6 14 14 9 22 -4 7 -10 8 -14 4 -3 -5 -13 -14 -21 -21 -14 -10 -16 -8 -16 12 0 17 3 21 12 14 8 -7 12 -2 12 16 0 14 -5 28 -10 31 -5 3 -3 13 4 22 12 16 11 16 -7 0 -15 -12 -25 -14 -37 -7 -14 8 -16 7 -11 -6 3 -10 13 -15 24 -12 10 3 20 -1 22 -7 4 -9 -7 -12 -34 -11 -22 1 -42 -2 -45 -7 -3 -4 1 -8 8 -8 9 0 9 -3 -2 -10 -11 -7 -11 -10 -2 -10 7 0 10 -4 7 -10 -3 -5 -11 -10 -16 -10 -6 0 -7 5 -4 10 8 13 -1 13 -25 0 -13 -7 -21 -7 -26 2 -4 6 -3 8 3 5 5 -3 9 11 10 33 1 37 0 39 -28 35 -16 -2 -31 1 -35 6 -3 6 -12 5 -22 -3 -15 -11 -15 -11 -5 3 7 9 9 20 5 24 -4 5 -1 5 6 1 6 -4 12 -3 12 3 0 5 -8 12 -17 14 -10 3 -6 4 8 4 16 -1 26 -7 25 -15 -1 -8 9 -16 21 -18 12 -2 28 -5 34 -6 6 -2 14 3 16 10 3 7 0 11 -7 10 -7 -2 -17 6 -23 17 -7 11 -16 23 -22 27 -6 5 -4 8 5 8 13 0 13 1 0 10 -12 8 -12 10 -1 10 8 0 11 3 8 7 -4 3 1 12 11 19 10 8 12 13 5 14 -7 0 -13 5 -13 12 0 8 3 9 11 1 11 -11 62 -5 54 7 -3 4 5 10 16 13 12 3 18 10 15 15 -3 5 1 15 9 22 10 8 12 17 6 24 -11 13 -9 41 2 52 4 4 7 11 7 16 0 19 -21 4 -69 -49z"/>
<path d="M2932 4330 c-18 -11 -45 -40 -61 -66 -29 -45 -101 -248 -101 -285 0 -25 50 -129 62 -129 20 0 62 59 98 137 21 46 58 109 83 140 24 32 50 74 57 94 12 34 11 37 -16 64 -16 16 -34 28 -41 27 -6 -1 -14 7 -18 18 -8 25 -21 25 -63 0z"/>
<path d="M2459 4003 c-29 -37 -38 -63 -43 -129 -13 -148 -18 -182 -38 -251 -20 -68 -20 -74 -4 -98 19 -29 33 -26 34 7 0 13 5 52 10 88 6 36 14 108 17 160 9 123 20 164 50 189 23 18 24 21 9 35 -19 20 -18 20 -35 -1z"/>
<path d="M657 2573 c-16 -15 -4 -31 39 -53 25 -13 56 -34 70 -46 13 -13 24 -21 24 -18 0 2 13 -2 30 -11 36 -19 74 -19 89 -2 8 11 7 18 -7 29 -29 24 -143 88 -157 88 -8 0 -17 5 -20 10 -7 11 -58 14 -68 3z"/>
<path d="M249 2312 c-1 -4 -1 -10 0 -14 0 -5 -6 -8 -15 -8 -11 0 -14 -5 -10 -16 4 -12 1 -14 -14 -9 -22 7 -26 -5 -8 -23 9 -9 7 -13 -5 -18 -28 -10 -19 -23 14 -19 17 2 37 12 45 22 7 10 14 16 14 13 9 -39 3 -47 -32 -41 -4 0 -15 -10 -24 -24 -9 -14 -22 -25 -29 -25 -20 0 -39 -27 -23 -32 19 -7 49 3 42 13 -3 5 0 9 6 9 6 0 8 5 4 11 -4 8 1 9 16 4 15 -5 20 -4 16 4 -4 6 0 11 9 11 9 0 14 4 11 9 -3 4 6 7 20 5 24 -2 25 -1 10 15 -17 19 -12 33 9 25 15 -6 28 21 29 63 1 32 -7 42 -19 24 -3 -6 -17 -6 -35 -1 -17 5 -31 6 -31 2z"/>
<path d="M3387 1398 c-53 -51 -53 -62 1 -141 54 -79 102 -165 102 -184 0 -6 5 -15 10 -18 6 -3 1 20 -11 51 -14 36 -18 59 -12 61 15 5 -31 219 -51 238 -13 14 -17 13 -39 -7z"/>
</g>
</svg>
